<?xml version="1.0" encoding="UTF-8"?>
<svg version="1.1" xmlns="http://www.w3.org/2000/svg" width="1688" height="579">
<path d="M0 0 C21.45 0 42.9 0 65 0 C110.0338729 134.50116705 110.0338729 134.50116705 123 181 C123.19819336 180.29472168 123.39638672 179.58944336 123.60058594 178.86279297 C129.48231674 158.09475894 135.97261519 137.5320018 142.625 117 C142.8405743 116.33464485 143.05614861 115.6692897 143.27825546 114.98377228 C145.24759766 108.90676349 147.21872393 102.83033391 149.19126892 96.75436401 C153.01561439 84.97102692 156.79740588 73.17426967 160.56533813 61.37277222 C162.17976235 56.31694401 163.79692042 51.26199066 165.4140625 46.20703125 C165.71723892 45.25933365 166.02041534 44.31163605 166.33277893 43.33522034 C167.22171871 40.55677069 168.11082601 37.77837471 169 35 C169.28806519 34.09973083 169.57613037 33.19946167 169.8729248 32.27191162 C171.48265716 27.24255419 173.09555288 22.21423477 174.71383667 17.18762207 C175.19077493 15.70465443 175.66665102 14.22134471 176.14138794 12.7376709 C176.7775924 10.74995967 177.41753904 8.76349504 178.05859375 6.77734375 C178.58924438 5.12593384 178.58924438 5.12593384 179.13061523 3.44116211 C180 1 180 1 181 0 C201.46 0 221.92 0 243 0 C243 84.15 243 168.3 243 255 C228.48 255 213.96 255 199 255 C198.67 192.63 198.34 130.26 198 66 C193.05 82.83 188.1 99.66 183 117 C179.36120873 128.71089024 175.70990655 140.41269691 171.97810745 152.09350204 C169.92761839 158.5186342 167.89062728 164.94807411 165.85095406 171.37664604 C165.07953254 173.80747445 164.30746507 176.23809709 163.53538513 178.66871643 C160.07614651 189.56582395 156.65831131 200.47531806 153.26953125 211.39453125 C153.04486805 212.11812332 152.82020485 212.84171539 152.58873367 213.5872345 C150.45983674 220.44483633 148.33471902 227.30359018 146.21726704 234.16473484 C145.28369696 237.18730681 144.34651424 240.20875948 143.41015625 243.23046875 C142.90884941 244.86203667 142.90884941 244.86203667 142.39741516 246.52656555 C142.09361435 247.50546249 141.78981354 248.48435944 141.47680664 249.49291992 C141.21388321 250.34512619 140.95095978 251.19733246 140.68006897 252.07536316 C140 254 140 254 139 255 C136.40640678 255.08851529 133.83960309 255.11525945 131.24609375 255.09765625 C130.47064713 255.0962413 129.6952005 255.09482635 128.89625549 255.09336853 C126.40996506 255.08775345 123.9237634 255.07519846 121.4375 255.0625 C119.75586067 255.05748694 118.07421994 255.0529237 116.39257812 255.04882812 C112.26168434 255.03777913 108.13085724 255.02050445 104 255 C98.31351819 237.32742438 92.72714261 219.62458263 87.19562149 201.90296936 C86.55140845 199.83947234 85.90678733 197.7761032 85.26205444 195.71276855 C78.71101328 174.74625544 72.20644747 153.76576496 65.74160767 132.77249146 C61.01310129 117.39368847 61.01310129 117.39368847 56.12109375 102.06640625 C55.91043777 101.41858185 55.6997818 100.77075745 55.48274231 100.103302 C54.59098743 97.36790775 53.69056559 94.63593392 52.77270508 91.90917969 C49.61447123 82.34921175 47.46934722 72.8773889 45 63 C44.67 126.36 44.34 189.72 44 255 C29.48 255 14.96 255 0 255 C0 170.85 0 86.7 0 0 Z " fill="#040404" transform="translate(1083,23)"/>
<path d="M0 0 C19.8 0 39.6 0 60 0 C69.46932469 28.28960751 78.79835489 56.62222449 88 85 C88.35312256 86.08859314 88.70624512 87.17718628 89.07006836 88.29876709 C105.23965434 138.1690489 105.23965434 138.1690489 111.40600586 160.99609375 C111.9501275 163.04573912 111.9501275 163.04573912 113 165 C113.23895996 164.20271484 113.47791992 163.40542969 113.72412109 162.58398438 C121.65124032 136.21681443 130.05782194 110.01014176 138.51496887 83.80892944 C142.59321906 71.17091737 146.64236411 58.52364271 150.6875 45.875 C151.32835117 43.87222732 151.96921977 41.86946022 152.61010742 39.86669922 C152.91676834 38.90796906 153.22342926 37.94923889 153.53938293 36.9614563 C154.13803103 35.09000205 154.73697117 33.21864119 155.33622742 31.34738159 C156.89463939 26.47655049 158.44170792 21.60240367 159.97509766 16.72363281 C160.29678421 15.70318878 160.61847076 14.68274475 160.9499054 13.63137817 C161.56773338 11.67018075 162.1830612 9.7081935 162.795578 7.74533081 C163.07033463 6.87433746 163.34509125 6.00334412 163.62817383 5.10595703 C163.86965652 4.33510773 164.11113922 3.56425842 164.35993958 2.77005005 C165 1 165 1 166 0 C184.81 0 203.62 0 223 0 C223 77.55 223 155.1 223 235 C209.47 235 195.94 235 182 235 C181.67 178.57 181.34 122.14 181 64 C176.71 78.52 172.42 93.04 168 108 C164.34150702 119.74796074 160.66988469 131.48852046 156.93551636 143.21211243 C155.64504915 147.26696774 154.35976217 151.32346432 153.07421875 155.37988281 C152.55198285 157.02756099 152.02973555 158.67523556 151.50747681 160.32290649 C151.2497411 161.13603931 150.99200539 161.94917213 150.7264595 162.78694534 C149.95564949 165.21799936 149.18426316 167.64886975 148.41268921 170.0796814 C143.74303824 184.79309896 139.11446699 199.51918598 134.5 214.25 C133.82317686 216.40959162 133.14633828 218.5691784 132.46948242 220.72875977 C130.97872021 225.485548 129.4893706 230.24277509 128 235 C117.44 235 106.88 235 96 235 C94.25774135 230.35397692 92.57815871 225.84980717 91.10913086 221.13720703 C90.76636612 220.04151398 90.42360138 218.94582092 90.07044983 217.81692505 C89.70559982 216.64241791 89.34074982 215.46791077 88.96484375 214.2578125 C88.57393051 213.00571991 88.18301727 211.75362732 87.78025818 210.46359253 C86.71773775 207.05998384 85.65810416 203.6554828 84.59905243 200.25079346 C83.71015488 197.39446263 82.81951855 194.5386753 81.92885208 191.68289566 C74.97090587 169.37316801 68.04033256 147.05488002 61.12255859 124.73266602 C58.01452189 114.70463626 54.90556191 104.67702858 51.76171875 94.66015625 C51.52322205 93.89980072 51.28472534 93.13944519 51.03900146 92.35604858 C49.99620048 89.03265594 48.95114503 85.71002427 47.90185547 82.38867188 C47.55396973 81.28201172 47.20608398 80.17535156 46.84765625 79.03515625 C46.55898682 78.1212915 46.27031738 77.20742676 45.97290039 76.26586914 C44.56359947 71.53507407 43.29881295 66.76231415 42 62 C41.67 119.09 41.34 176.18 41 235 C27.47 235 13.94 235 0 235 C0 157.45 0 79.9 0 0 Z " fill="#080808" transform="translate(988,318)"/>
<path d="M0 0 C95.37 0 190.74 0 289 0 C289 28.05 289 56.1 289 85 C255.67 85 222.34 85 188 85 C188 143.08 188 201.16 188 261 C125.96 261 63.92 261 0 261 C0 174.87 0 88.74 0 0 Z M21.6015625 115.73828125 C5.61649876 135.89691966 0.46286701 158.65365814 2 184 C3.24029261 194.15202474 6.56928115 203.81277416 11 213 C11.41765625 213.89847656 11.8353125 214.79695312 12.265625 215.72265625 C21.35209591 233.86948752 37.06954244 247.07120508 56 254 C79.82925338 261.86215056 105.35980752 261.32309177 128 250 C148.93520642 238.70797935 164.2744099 220.79440385 171.28125 198 C178.07389088 174.36254103 175.52680279 150.2094585 164.1484375 128.4609375 C159.88254952 121.20382926 154.9456087 114.9456087 149 109 C148.21753906 108.21753906 147.43507813 107.43507813 146.62890625 106.62890625 C130.68033606 91.49690285 108.97290293 84.57460955 87.20263672 84.69921875 C61.64781797 85.37696909 38.42629918 96.52958351 21.6015625 115.73828125 Z " fill="#010101" transform="translate(1383,18)"/>
<path d="M0 0 C13.86 0 27.72 0 42 0 C52.34703413 11.38868187 52.34703413 11.38868187 54.87890625 17.4609375 C59.16685257 27.01369145 65.01139517 35.43912076 70.86856079 44.08554077 C74.04855844 48.8002686 77.16492577 53.55675174 80.2890625 58.30859375 C81.57162076 60.25395407 82.85449969 62.19910301 84.13769531 64.14404297 C95.09653111 80.75957704 106.05406211 97.3759651 117 114 C117.49216003 114.74737427 117.98432007 115.49474854 118.49139404 116.26477051 C133.59737347 139.20723941 148.14098583 162.24168999 162 186 C162.33 124.62 162.66 63.24 163 0 C176.53 0 190.06 0 204 0 C204 85.8 204 171.6 204 260 C162 260 162 260 151.9765625 251.26171875 C149.64559967 247.3987118 147.6108498 243.70421307 145.625 239.6875 C144.53533078 237.76838835 143.43113908 235.85744905 142.3125 233.95507812 C140.12084632 230.18032059 138.01646514 226.3754119 135.9765625 222.51660156 C128.01143521 207.55045764 118.13783186 193.61774574 108.61480713 179.61779785 C98.08473028 164.12993763 87.73897198 148.56234742 77.73876953 132.72705078 C75.34222417 128.96835776 72.8875031 125.24914522 70.43383789 121.52758789 C63.98491848 111.74020635 57.76593918 101.83265317 51.6875 91.8125 C51.31456818 91.1983725 50.94163635 90.584245 50.55740356 89.95150757 C44.39503408 79.79006815 44.39503408 79.79006815 42 75 C42 136.05 42 197.1 42 260 C28.14 260 14.28 260 0 260 C0 174.2 0 88.4 0 0 Z " fill="#020202" transform="translate(18,18)"/>
<path d="M0 0 C15.18 0 30.36 0 46 0 C46.029729 7.56929443 46.029729 7.56929443 46.06005859 15.29150391 C46.12704596 31.987454 46.20458666 48.68334286 46.28752708 65.37922096 C46.33754399 75.49921804 46.38398773 85.61920746 46.421875 95.73925781 C46.45492568 104.56494556 46.4948281 113.39057189 46.54279006 122.21619165 C46.56792568 126.88468085 46.58974438 131.55313 46.60334396 136.22166824 C46.61628272 140.62606673 46.63846123 145.03032691 46.66738319 149.43464851 C46.67636754 151.04130993 46.68212748 152.64799355 46.68421364 154.25467873 C46.7132611 173.24728431 48.44306043 193.17325517 60 209 C60.52335937 209.71671875 61.04671875 210.4334375 61.5859375 211.171875 C68.77085473 220.14458853 78.85018905 224.83368108 90 227 C105.13883084 228.32744428 117.53878922 225.63560539 129.89453125 216.6171875 C141.08519533 206.96745008 145.2343177 189.96495266 147 176 C147.09426034 173.5083612 147.14147154 171.01467175 147.15148926 168.52127075 C147.15572167 167.80137368 147.15995408 167.08147661 147.16431475 166.33976448 C147.17725414 163.94542014 147.18334512 161.55110902 147.18945312 159.15673828 C147.19740199 157.43321025 147.20579046 155.7096842 147.21458435 153.98616028 C147.23259303 150.28450219 147.24762526 146.58284832 147.26036072 142.88116837 C147.2806195 137.03304486 147.30826321 131.1849705 147.33703613 125.33688354 C147.40214601 111.87602592 147.45773509 98.4151322 147.51302338 84.95423126 C147.5638362 72.5995209 147.61664577 60.24482859 147.67754889 47.8901633 C147.70595313 42.07071216 147.72952761 36.25126707 147.74947357 30.43178105 C147.76281734 26.82293906 147.78023071 23.21412524 147.79878426 19.60530663 C147.80656849 17.92544323 147.81262563 16.24557086 147.81687737 14.56569481 C147.8228841 12.28269051 147.83491192 9.99979715 147.84851074 7.71682739 C147.85366447 6.43633074 147.85881821 5.15583408 147.86412811 3.8365345 C148 1 148 1 149 0 C150.44289787 -0.09295815 151.89029785 -0.11746513 153.33618164 -0.11352539 C154.2570607 -0.11344986 155.17793976 -0.11337433 156.12672424 -0.11329651 C157.12775681 -0.10813522 158.12878937 -0.10297394 159.16015625 -0.09765625 C160.68956093 -0.09553383 160.68956093 -0.09553383 162.24986267 -0.09336853 C165.52077107 -0.08775097 168.79161213 -0.0751955 172.0625 -0.0625 C174.27408756 -0.05748726 176.48567618 -0.05292396 178.69726562 -0.04882812 C184.13153357 -0.03777584 189.56576197 -0.02102063 195 0 C195.046952 20.985707 195.08210156 41.9714052 195.10362434 62.95715427 C195.1138883 72.7036319 195.12785393 82.45007668 195.15087891 92.1965332 C195.17096368 100.70254238 195.18375178 109.20852774 195.18817699 117.71455997 C195.19075914 122.20842914 195.19672327 126.70223024 195.21146011 131.19607735 C195.33942249 171.89675555 195.44743597 213.89293492 165.7578125 245.3984375 C145.74435836 264.27798489 119.01732195 269.76794546 92.3515625 269.25 C67.23468601 268.34095633 42.93352134 260.14691052 25.41357422 241.58691406 C15.35811853 230.29840595 8.88147581 216.89116953 4.6875 202.5 C4.44491455 201.67048828 4.2023291 200.84097656 3.95239258 199.98632812 C0.3121827 186.71738353 -0.28938138 173.71913025 -0.22705078 160.07080078 C-0.22648528 158.31506354 -0.22680593 156.55932583 -0.22793579 154.80358887 C-0.22850489 150.08138558 -0.21682307 145.35928584 -0.20278788 140.63710642 C-0.19020593 135.68571924 -0.18910417 130.73432916 -0.18673706 125.78292847 C-0.18054408 116.42647349 -0.16416307 107.07006577 -0.14403808 97.71363151 C-0.12161081 87.05329866 -0.11066855 76.39296345 -0.10064721 65.73261285 C-0.07979469 43.82170974 -0.04314601 21.91087133 0 0 Z " fill="#060606" transform="translate(259,18)"/>
<path d="M0 0 C15.18 0 30.36 0 46 0 C46.029729 7.36397095 46.029729 7.36397095 46.06005859 14.87670898 C46.12710928 31.13757746 46.2046497 47.39838359 46.28752708 63.65917873 C46.33749786 73.51341156 46.3839416 83.36763671 46.421875 93.22192383 C46.45497422 101.81801243 46.49490223 110.4140386 46.54279006 119.01005799 C46.5678782 123.55512274 46.58971005 128.10014702 46.60334396 132.64526176 C46.61632693 136.93722434 46.63854967 141.22904683 46.66738319 145.52093124 C46.67633393 147.08279324 46.68211927 148.64467771 46.68421364 150.20656395 C46.71903056 172.25912709 48.393961 197.3085343 64.1953125 214.37890625 C75.21564233 224.27812027 88.3097712 227.99602967 102.8515625 227.37890625 C114.2991243 226.53864573 125.37696492 222.00751611 133.28515625 213.55859375 C148.22211106 194.3778686 148.11590419 169.50865171 148.20532227 146.33422852 C148.21493106 144.7261227 148.22494274 143.11801925 148.23532104 141.50991821 C148.26205167 137.19484373 148.28323088 132.87975867 148.30332303 128.56464887 C148.32538215 124.03632065 148.35267214 119.50802383 148.37937927 114.97972107 C148.42903958 106.4272818 148.47407585 97.87482485 148.51740164 89.3223514 C148.56700379 79.57609807 148.62183575 69.82987629 148.67708123 60.08365357 C148.79049129 40.05579718 148.8967274 20.02791141 149 0 C164.18 0 179.36 0 195 0 C195.04528838 21.70672115 195.08207117 43.41340357 195.10362434 65.1201601 C195.11390145 75.20081089 195.12789292 85.28143006 195.15087891 95.36206055 C195.17092269 104.15662366 195.18374229 112.95116385 195.18817699 121.74574918 C195.19076591 126.39486766 195.19677507 131.04392064 195.21146011 135.69301796 C195.22521846 140.08507263 195.22918654 144.47703593 195.22621536 148.86911011 C195.22675749 150.46562894 195.23062472 152.06215142 195.23841095 153.65865135 C195.30822073 168.73527946 194.48018131 184.00767381 190.8125 198.6875 C190.59964355 199.55487793 190.38678711 200.42225586 190.16748047 201.31591797 C184.5476491 223.04832911 172.58245646 242.05004977 154 255 C127.15635218 270.64848594 95.38098725 272.40942392 65.5625 265.375 C53.48817336 261.96682176 42.47306819 256.24690905 33 248 C32.12021484 247.33291016 32.12021484 247.33291016 31.22265625 246.65234375 C18.43967107 236.71002194 10.36827885 220.41839398 5.6875 205.25 C5.34199097 204.14591797 5.34199097 204.14591797 4.98950195 203.01953125 C0.72595173 188.17455344 -0.44829429 173.04936844 -0.34057617 157.68676758 C-0.33972684 155.9499971 -0.340211 154.21322555 -0.34190369 152.47645569 C-0.34275312 147.82887066 -0.32530095 143.18152503 -0.30418181 138.53399491 C-0.28523656 133.65204522 -0.28365068 128.77008809 -0.28010559 123.8881073 C-0.27083695 114.67345329 -0.24629446 105.45890797 -0.21605712 96.2443015 C-0.18235035 85.74105314 -0.16598646 75.23779918 -0.15097082 64.73451006 C-0.11973936 43.15626618 -0.06479333 21.57817101 0 0 Z " fill="#050505" transform="translate(861,18)"/>
<path d="M0 0 C1.6689062 0.00138269 1.6689062 0.00138269 3.37152767 0.00279331 C4.6434396 0.00141865 5.91535152 0.00004398 7.22580624 -0.00137234 C8.64839863 0.00216728 10.07099079 0.00580209 11.49358273 0.00952244 C12.98139602 0.0098043 14.46920945 0.00964659 15.95702267 0.00907993 C20.00849921 0.00879193 24.05994641 0.01468916 28.1114161 0.02165389 C32.34084918 0.02788691 36.57028285 0.02849119 40.79971981 0.0296793 C48.81432643 0.03279277 56.82891947 0.04100637 64.8435201 0.05102879 C73.96549605 0.06218944 83.08747263 0.06770025 92.2094537 0.07272422 C110.97922147 0.08318897 129.74897063 0.10153464 148.51872921 0.12304783 C148.51872921 13.98304783 148.51872921 27.84304783 148.51872921 42.12304783 C113.86872921 42.12304783 79.21872921 42.12304783 43.51872921 42.12304783 C43.51872921 63.24304783 43.51872921 84.36304783 43.51872921 106.12304783 C76.84872921 106.12304783 110.17872921 106.12304783 144.51872921 106.12304783 C144.51872921 119.32304783 144.51872921 132.52304783 144.51872921 146.12304783 C111.18872921 146.12304783 77.85872921 146.12304783 43.51872921 146.12304783 C43.51872921 170.21304783 43.51872921 194.30304783 43.51872921 219.12304783 C79.48872921 219.12304783 115.45872921 219.12304783 152.51872921 219.12304783 C152.51872921 232.65304783 152.51872921 246.18304783 152.51872921 260.12304783 C101.03872921 260.12304783 49.55872921 260.12304783 -3.48127079 260.12304783 C-3.52160214 195.16716953 -3.52160214 195.16716953 -3.53009892 168.1054697 C-3.53205693 161.91072684 -3.53407745 155.715984 -3.53620243 149.52124119 C-3.53646618 148.74478078 -3.53672993 147.96832036 -3.53700167 147.16833085 C-3.54135654 134.61641813 -3.54924341 122.06450997 -3.55842359 109.51259995 C-3.56775967 96.64062416 -3.5733263 83.76865076 -3.57535928 70.89667171 C-3.57673461 62.9475239 -3.5810857 54.99838896 -3.58918726 47.04924511 C-3.59507482 40.96420386 -3.59572987 34.8791738 -3.59437847 28.79412937 C-3.594655 26.29024711 -3.5966628 23.78636438 -3.60047626 21.28248501 C-3.60540644 17.88028623 -3.60427159 14.47814386 -3.60152531 11.07594395 C-3.60443815 10.07110118 -3.60735099 9.06625841 -3.6103521 8.03096586 C-3.60836105 7.12677536 -3.60637 6.22258486 -3.60431862 5.29099464 C-3.60469834 4.50459384 -3.60507806 3.71819304 -3.60546929 2.90796191 C-3.40711198 0.05727718 -2.85743088 0.14170185 0 0 Z " fill="#000000" transform="translate(682.4812707901001,17.876952171325684)"/>
<path d="M0 0 C12.21 0 24.42 0 37 0 C42.30564422 7.2952608 47.34209049 14.51276374 52.125 22.125 C58.35241588 31.94109622 64.72063943 41.65262611 71.1875 51.3125 C80.19814709 64.77823066 89.14716839 78.28346306 98.0625 91.8125 C98.6630722 92.72327301 99.26364441 93.63404602 99.88241577 94.57241821 C123.61585699 130.5677916 123.61585699 130.5677916 131.875 144 C132.37773437 144.81082031 132.88046875 145.62164062 133.3984375 146.45703125 C137.38241197 152.91066337 141.1753259 159.44341583 145 166 C145.33 111.22 145.66 56.44 146 0 C158.21 0 170.42 0 183 0 C183 77.55 183 155.1 183 235 C146 235 146 235 136.640625 226.5078125 C134.57751465 223.61024475 134.57751465 223.61024475 133.30273438 221.03540039 C132.80346436 220.07135284 132.30419434 219.1073053 131.78979492 218.11404419 C131.2816626 217.12765961 130.77353027 216.14127502 130.25 215.125 C129.07914287 213.1125126 127.89470229 211.10787074 126.69726562 209.11108398 C124.37123684 205.19511224 122.11760059 201.25197693 119.92773438 197.25830078 C116.45410009 190.94838731 112.54582487 185.02089662 108.5 179.0625 C107.20919151 177.0848638 105.92294429 175.10424497 104.640625 173.12109375 C97.61787795 162.31724025 90.49954999 151.57577559 83.3996582 140.82254028 C59.58078002 104.74557382 59.58078002 104.74557382 51.1875 91.125 C50.69314453 90.3309375 50.19878906 89.536875 49.68945312 88.71875 C45.27088447 81.57189954 41.17677996 74.30936492 37 67 C37 122.44 37 177.88 37 235 C24.79 235 12.58 235 0 235 C0 157.45 0 79.9 0 0 Z " fill="#060606" transform="translate(363,318)"/>
<path d="M0 0 C12.21 0 24.42 0 37 0 C45.99219502 12.36426815 45.99219502 12.36426815 48.91796875 16.87109375 C49.59923828 17.91620117 50.28050781 18.96130859 50.98242188 20.03808594 C51.5169397 20.86221985 51.5169397 20.86221985 52.06225586 21.70300293 C54.11179537 24.86224647 56.17207382 28.0144909 58.23046875 31.16796875 C58.90660721 32.20463181 58.90660721 32.20463181 59.59640503 33.26223755 C65.08766139 41.67673958 70.62141528 50.06321742 76.15374756 58.45074463 C78.00808565 61.26225933 79.86179704 64.07418626 81.71533203 66.88623047 C87.34095389 75.42053056 92.96851428 83.95354074 98.60147095 92.48300171 C101.01490609 96.13808041 103.42688082 99.79412148 105.83862305 103.45031738 C106.96293318 105.15397923 108.08790208 106.85720658 109.21362305 108.55993652 C122.09521567 128.04498667 134.21163928 147.79138162 146 168 C146 112.56 146 57.12 146 0 C158.21 0 170.42 0 183 0 C183 77.55 183 155.1 183 235 C146 235 146 235 137.28125 227.359375 C135.40081787 224.69918823 135.40081787 224.69918823 134.26464844 222.30029297 C133.81408081 221.39744568 133.36351318 220.49459839 132.89929199 219.56439209 C132.43752563 218.6356427 131.97575928 217.70689331 131.5 216.75 C130.41846954 214.84602059 129.32204451 212.95043526 128.21191406 211.06298828 C125.90012696 207.10572642 123.65781123 203.11948723 121.45507812 199.10058594 C116.37267458 189.96195629 110.48051604 181.35660283 104.64086914 172.69128418 C101.55493286 168.09505204 98.52227912 163.46399126 95.484375 158.8359375 C90.35195376 151.03769638 85.18996377 143.26005297 80 135.5 C70.50647444 121.29252481 61.19847981 106.97984107 52.125 92.5 C51.51841553 91.53320312 50.91183105 90.56640625 50.28686523 89.5703125 C46.05194439 82.78235099 42.03544483 75.91790543 38 69 C37.67 123.78 37.34 178.56 37 235 C24.79 235 12.58 235 0 235 C0 157.45 0 79.9 0 0 Z " fill="#050505" transform="translate(1489,318)"/>
<path d="M0 0 C1.04728271 0.00563965 2.09456543 0.0112793 3.17358398 0.01708984 C25.33346789 0.36097066 44.75663638 7.09006296 61.0625 22.5 C74.18665182 36.21038915 81.3125 53.43707495 81.3125 72.3125 C66.1325 72.3125 50.9525 72.3125 35.3125 72.3125 C33.9925 68.0225 32.6725 63.7325 31.3125 59.3125 C26.51685861 50.110053 20.15413251 44.70316844 10.3125 41.3125 C-0.27885528 38.76179083 -10.58438703 40.15900745 -20 45.625 C-26.89746594 50.31583197 -30.59839102 56.29872216 -32.6875 64.3125 C-34.0996209 73.93181932 -32.15274383 81.30939997 -26.6875 89.3125 C-17.43485583 100.64316118 -1.75661852 105.15125189 11.5625 109.75 C39.40244892 119.36909525 66.02596614 131.37016487 79.7421875 159.21484375 C89.21213807 180.53624134 89.72560026 204.89641649 81.78515625 226.75 C73.00716764 247.98481594 58.32965206 262.50792171 37.39160156 271.50341797 C12.91475132 281.02858022 -17.77527282 279.78125018 -41.6875 269.3125 C-51.68441438 264.83031538 -59.07870382 259.01107548 -66.6875 251.3125 C-67.35523438 250.65507812 -68.02296875 249.99765625 -68.7109375 249.3203125 C-76.49236933 241.11635948 -81.43898174 230.90502095 -85.0625 220.3125 C-85.30105713 219.62623535 -85.53961426 218.9399707 -85.78540039 218.23291016 C-88.03462446 211.21455068 -88.60620192 204.88158659 -89.6875 197.3125 C-73.8475 197.3125 -58.0075 197.3125 -41.6875 197.3125 C-39.2125 205.2325 -39.2125 205.2325 -36.6875 213.3125 C-31.8285091 223.03048181 -25.31018157 230.51397903 -15.0078125 234.5703125 C-2.27681256 238.64251787 9.9637051 238.22644944 22.0625 232.1875 C30.5383417 227.03431131 35.45223627 219.66895594 38.3125 210.3125 C38.50328125 209.70148438 38.6940625 209.09046875 38.890625 208.4609375 C41.10235706 197.19748717 39.01735024 186.95567974 33.5 177.0625 C22.08669293 162.71434254 4.98482983 156.18366154 -12.00683594 150.50415039 C-37.17096644 142.06205669 -61.31595902 129.05558197 -73.6875 104.3125 C-81.49070683 85.5433873 -82.99517129 62.87142251 -75.28125 43.84375 C-67.13147539 26.1602768 -53.59966079 13.76450582 -35.6875 6.3125 C-23.95449655 2.04979011 -12.47167417 -0.0710521 0 0 Z " fill="#0A0A0A" transform="translate(563.6875,9.6875)"/>
<path d="M0 0 C2.90834885 -0.26660183 5.60138268 -0.34779124 8.5078125 -0.29296875 C9.34843231 -0.28872391 10.18905212 -0.28447906 11.05514526 -0.28010559 C13.74541993 -0.26328532 16.43495099 -0.22562781 19.125 -0.1875 C20.94660378 -0.17245745 22.76821928 -0.1587683 24.58984375 -0.14648438 C29.06018324 -0.11337094 33.52996546 -0.06156637 38 0 C41.33481621 7.88379758 44.50743992 15.81096461 47.52734375 23.8203125 C48.15917572 25.48856583 48.15917572 25.48856583 48.80377197 27.19052124 C49.94536531 30.2057019 51.08523082 33.22152867 52.22436142 36.23764038 C53.43815995 39.45002349 54.65434498 42.66150279 55.87036133 45.87304688 C57.64578955 50.5625376 59.42059427 55.2522633 61.19455242 59.94231033 C65.72681033 71.92463442 70.27000801 83.90280074 74.81433105 95.8805542 C76.19313869 99.51486266 77.57169399 103.14926675 78.95019531 106.78369141 C84.07417095 120.29240621 89.20112498 133.7999852 94.33374023 147.30541992 C95.886455 151.39109606 97.43798129 155.47722032 98.98852539 159.5637207 C102.64485864 169.19652539 106.31263576 178.82464565 110.01075745 188.4414978 C111.79087155 193.072538 113.56565466 197.70561277 115.33999634 202.33886719 C116.18837804 204.54969264 117.03938048 206.75951441 117.89315796 208.96826172 C119.07337638 212.02193238 120.24462804 215.07890519 121.4140625 218.13671875 C121.9391465 219.48469795 121.9391465 219.48469795 122.47483826 220.85990906 C122.79461136 221.7010878 123.11438446 222.54226654 123.44384766 223.40893555 C123.72185211 224.13082565 123.99985657 224.85271576 124.2862854 225.59648132 C125.19325187 228.65079863 125.54941278 231.84588943 126 235 C111.48 235 96.96 235 82 235 C79.39232951 227.87081515 76.78526486 220.74146189 74.18414307 213.6098938 C72.97274394 210.2891187 71.76020466 206.96877007 70.54492188 203.64941406 C69.15140682 199.84308336 67.76306225 196.0348851 66.375 192.2265625 C65.93752441 191.03382721 65.50004883 189.84109192 65.04931641 188.61221313 C64.44869385 186.96072769 64.44869385 186.96072769 63.8359375 185.27587891 C63.48063965 184.30325104 63.1253418 183.33062317 62.75927734 182.32852173 C62 180 62 180 62 178 C31.97 178.33 1.94 178.66 -29 179 C-35.53823046 196.68093695 -35.53823046 196.68093695 -42.07397461 214.36279297 C-42.89167387 216.57262462 -43.70945772 218.78242497 -44.52734375 220.9921875 C-45.16742371 222.72577515 -45.16742371 222.72577515 -45.82043457 224.49438477 C-46.22636841 225.59049072 -46.63230225 226.68659668 -47.05053711 227.81591797 C-47.40361435 228.77078094 -47.75669159 229.72564392 -48.12046814 230.70944214 C-49 233 -49 233 -50 235 C-64.19 235 -78.38 235 -93 235 C-92.2888751 230.73325061 -91.72247732 227.87325831 -90.16845703 224.03173828 C-89.78859146 223.0839299 -89.40872589 222.13612152 -89.01734924 221.15959167 C-88.60170212 220.14012955 -88.18605499 219.12066742 -87.7578125 218.0703125 C-87.32327255 216.99030472 -86.8887326 215.91029694 -86.44102478 214.79756165 C-85.50100731 212.46308929 -84.55825176 210.12971801 -83.61306763 207.79733276 C-82.09913091 204.06115888 -80.59207556 200.32228393 -79.08764648 196.58227539 C-78.57494207 195.30787411 -78.06223148 194.03347531 -77.54951477 192.75907898 C-77.29493311 192.12626196 -77.04035145 191.49344494 -76.77805519 190.84145164 C-76.00071448 188.91003836 -75.22259482 186.97894058 -74.44425964 185.04792786 C-70.30676303 174.78080323 -66.21648834 164.49549911 -62.15249634 154.19906616 C-60.25217453 149.38449549 -58.34882784 144.5711213 -56.4453125 139.7578125 C-56.03599991 138.72277084 -55.62668732 137.68772919 -55.20497131 136.62132263 C-44.39188375 109.28927579 -33.51914707 81.98079813 -22.65297508 54.6698246 C-20.7275027 49.82993115 -18.80355684 44.98943393 -16.88085938 40.1484375 C-14.70078693 34.65971233 -12.51776037 29.17217514 -10.33157349 23.68588257 C-9.57653225 21.78956879 -8.82266217 19.89278823 -8.07003784 17.99551392 C-7.06421931 15.46056212 -6.05421688 12.92732089 -5.04296875 10.39453125 C-4.7580658 9.67354248 -4.47316284 8.95255371 -4.17962646 8.2097168 C-2.98518564 5.23019479 -1.78924228 2.68386342 0 0 Z M16 49 C15.74645752 49.79204834 15.49291504 50.58409668 15.23168945 51.40014648 C9.97722295 67.70723014 4.46061979 83.90292564 -1.47265625 99.9765625 C-1.70974997 100.61889139 -1.94684368 101.26122028 -2.19112206 101.92301369 C-4.59013196 108.4166244 -7.00233816 114.90524314 -9.42880917 121.38864136 C-10.12475952 123.24965729 -10.81849958 125.11149931 -11.51219177 126.97335815 C-12.37206906 129.28034308 -13.23611983 131.58577789 -14.10487366 133.88943481 C-14.4869548 134.91535736 -14.86903595 135.94127991 -15.26269531 136.99829102 C-15.5995636 137.89564468 -15.93643188 138.79299835 -16.2835083 139.71754456 C-17.14975133 142.07833581 -17.14975133 142.07833581 -17 145 C5.11 145 27.22 145 50 145 C48.02161932 137.74593751 45.97591254 130.81595285 43.375 123.8046875 C42.66603284 121.86704821 41.95713244 119.9293845 41.24829102 117.99169922 C40.88083771 116.99233337 40.5133844 115.99296753 40.13479614 114.96331787 C33.05772729 95.70326102 26.28536857 76.37287648 19.96704102 56.85107422 C19.06490198 54.19134696 18.07035585 51.59597888 17 49 C16.67 49 16.34 49 16 49 Z " fill="#0D0D0D" transform="translate(762,318)"/>
<path d="M0 0 C12.87 0 25.74 0 39 0 C47.9859146 22.95315143 56.7907001 45.96497968 65.47607422 69.03320312 C66.33819134 71.32292601 67.20033312 73.6126396 68.0625 75.90234375 C68.69673386 77.58679092 68.69673386 77.58679092 69.34378052 79.30526733 C73.16257088 89.44222619 77.0125537 99.56710839 80.875 109.6875 C85.36748323 121.46079469 89.85184237 133.23709738 94.3203125 145.01953125 C94.78375061 146.24148697 95.24718872 147.46344269 95.72467041 148.72242737 C98.09067516 154.96194886 100.45532638 161.20197922 102.81835938 167.44262695 C107.17272311 178.93822524 111.54073083 190.42797745 115.9609375 201.8984375 C116.71886265 203.86974836 117.47667862 205.8411012 118.234375 207.8125 C119.62571244 211.43248425 121.02531154 215.04911993 122.4296875 218.6640625 C123.04461986 220.26288664 123.65922465 221.86183682 124.2734375 223.4609375 C124.69355606 224.53158951 124.69355606 224.53158951 125.12216187 225.62387085 C126.41656009 229.01598088 127 231.30867245 127 235 C112.48 235 97.96 235 83 235 C81.72382813 231.52082031 80.44765625 228.04164063 79.1328125 224.45703125 C77.89519343 221.08449018 76.65732557 217.71204052 75.41943359 214.33959961 C74.55979822 211.99724723 73.70042119 209.65480003 72.84130859 207.31225586 C71.60582431 203.94359728 70.36940889 200.57528172 69.1328125 197.20703125 C68.74940704 196.16102249 68.36600159 195.11501373 67.97097778 194.03730774 C67.61075531 193.05666855 67.25053284 192.07602936 66.87939453 191.06567383 C66.56406769 190.20629715 66.24874084 189.34692047 65.92385864 188.46150208 C65.28144533 186.74987474 64.59767652 185.05343504 63.88253784 183.37089539 C63 181 63 181 63 178 C32.97 178.33 2.94 178.66 -28 179 C-34.16350549 195.55871298 -34.16350549 195.55871298 -40.32568359 212.11791992 C-41.09988687 214.19712075 -41.87413513 216.27630483 -42.6484375 218.35546875 C-43.04844971 219.43107056 -43.44846191 220.50667236 -43.8605957 221.61486816 C-44.24610596 222.64970337 -44.63161621 223.68453857 -45.02880859 224.75073242 C-45.5284462 226.09309212 -45.5284462 226.09309212 -46.03817749 227.46257019 C-46.99499716 229.98680177 -47.9974344 232.49358599 -49 235 C-63.19 235 -77.38 235 -92 235 C-91.18267178 230.09603068 -90.03880272 226.10511992 -88.203125 221.57421875 C-87.90713409 220.82946289 -87.61114319 220.08470703 -87.30618286 219.31738281 C-86.29298184 216.77184757 -85.2713326 214.22978253 -84.25 211.6875 C-83.50020376 209.80794181 -82.75104189 207.92813046 -82.00244141 206.0480957 C-80.30094147 201.77704863 -78.59617709 197.50732144 -76.88964844 193.23828125 C-73.75102249 185.38210198 -70.62861186 177.51952261 -67.5078125 169.65625 C-66.34026946 166.7147549 -65.17269753 163.77327127 -64.00512695 160.83178711 C-63.70899537 160.08570914 -63.41286379 159.33963118 -63.10775852 158.57094479 C-59.69551507 149.97465571 -56.27942075 141.37989761 -52.86328125 132.78515625 C-48.17738569 120.99552733 -43.49233095 109.20556513 -38.80865479 97.41505432 C-36.39635605 91.34243166 -33.983746 85.2699327 -31.57105255 79.19746685 C-29.92981707 75.06664266 -28.28869343 70.93577415 -26.64788818 66.80477905 C-17.79769115 44.523454 -8.91086294 22.2571522 0 0 Z M17 48 C16.7412207 48.80252197 16.48244141 49.60504395 16.21582031 50.43188477 C7.44892675 77.47568197 -2.21786706 104.17452364 -12.0307312 130.85444641 C-12.57360275 132.33294319 -12.57360275 132.33294319 -13.12744141 133.84130859 C-13.44210358 134.69647064 -13.75676575 135.55163269 -14.08096313 136.43270874 C-15.09778829 139.27316753 -16.04594866 142.13784599 -17 145 C5.44 145 27.88 145 51 145 C48.63409321 137.042653 48.63409321 137.042653 45.98217773 129.21606445 C45.42985725 127.68409172 45.42985725 127.68409172 44.86637878 126.12117004 C44.47605972 125.04606674 44.08574066 123.97096344 43.68359375 122.86328125 C42.83212492 120.50073459 41.98089682 118.13810116 41.12988281 115.77539062 C40.68922485 114.55440674 40.24856689 113.33342285 39.79455566 112.07543945 C32.133355 90.8410986 24.62393677 69.58434031 18 48 C17.67 48 17.34 48 17 48 Z " fill="#0F0F0F" transform="translate(225,318)"/>
<path d="M0 0 C44.88 0 89.76 0 136 0 C136 12.54 136 25.08 136 38 C104.98 38 73.96 38 42 38 C42 56.81 42 75.62 42 95 C71.7 95 101.4 95 132 95 C132 107.21 132 119.42 132 132 C102.3 132 72.6 132 42 132 C42 153.45 42 174.9 42 197 C74.01 197 106.02 197 139 197 C139 209.54 139 222.08 139 235 C93.13 235 47.26 235 0 235 C0 157.45 0 79.9 0 0 Z " fill="#0D0D0D" transform="translate(1321,318)"/>
<path d="M0 0 C52.14 0 104.28 0 158 0 C158 12.54 158 25.08 158 38 C138.86 38 119.72 38 100 38 C100 103.01 100 168.02 100 235 C86.14 235 72.28 235 58 235 C58 169.99 58 104.98 58 38 C38.86 38 19.72 38 0 38 C0 25.46 0 12.92 0 0 Z " fill="#0D0D0D" transform="translate(18,318)"/>
<path d="M0 0 C1.73527529 0.00138269 1.73527529 0.00138269 3.50560665 0.00279331 C4.1475788 0.00193889 4.78955094 0.00108446 5.45097679 0.00020415 C7.61756553 -0.00145239 9.78407806 0.0040735 11.95065975 0.00952244 C13.4975856 0.0098043 15.04451157 0.0096466 16.59143734 0.00907993 C20.80406531 0.00879191 25.01666505 0.01468934 29.22928643 0.02165389 C33.62688286 0.02788671 38.02447987 0.02849117 42.42208004 0.0296793 C50.75543011 0.03279283 59.08876714 0.04100651 67.42211145 0.05102879 C76.90683753 0.06218926 86.39156421 0.06770021 95.87629521 0.07272422 C115.39254738 0.0831891 134.90878165 0.10153485 154.42502499 0.12304783 C154.42502499 12.66304783 154.42502499 25.20304783 154.42502499 38.12304783 C135.28502499 38.12304783 116.14502499 38.12304783 96.42502499 38.12304783 C96.42502499 103.13304783 96.42502499 168.14304783 96.42502499 235.12304783 C82.56502499 235.12304783 68.70502499 235.12304783 54.42502499 235.12304783 C54.42502499 170.11304783 54.42502499 105.10304783 54.42502499 38.12304783 C35.28502499 38.12304783 16.14502499 38.12304783 -3.57497501 38.12304783 C-3.59560001 32.03867283 -3.61622501 25.95429783 -3.63747501 19.68554783 C-3.64657902 17.76299168 -3.65568302 15.84043552 -3.6650629 13.85962009 C-3.66798208 12.34456547 -3.67053064 10.82951006 -3.67263126 9.31445408 C-3.67774723 8.52067356 -3.6828632 7.72689304 -3.68813419 6.90905857 C-3.68844458 4.98001953 -3.63733395 3.05107871 -3.57497501 1.12304783 C-2.57497501 0.12304783 -2.57497501 0.12304783 0 0 Z " fill="#010101" transform="translate(560.5749750137329,317.8769521713257)"/>
<path d="M0 0 C12.1698599 10.0746186 19.30793465 23.49460373 22 39 C22.24397821 43.1849657 22.23110922 47.37110747 22.25 51.5625 C22.270625 52.67947266 22.29125 53.79644531 22.3125 54.94726562 C22.3973223 73.23707381 15.63985885 87.80366317 3.1328125 100.96484375 C-2.18932463 106.01093643 -8.28589907 109.14845134 -15 112 C-15.80566406 112.34289062 -16.61132812 112.68578125 -17.44140625 113.0390625 C-32.2278931 118.11820887 -50.10761643 116.08216062 -63.98046875 109.609375 C-79.69617346 101.55003925 -88.52268942 88.64945291 -93.96484375 72.05859375 C-98.83456975 54.4871861 -96.96091134 35.3649733 -88.8125 19.125 C-80.61630561 4.99181865 -68.60306351 -4.59267311 -53.1875 -9.8125 C-34.86784721 -14.34036873 -15.27345472 -11.03671277 0 0 Z " fill="#030303" transform="translate(1508,138)"/>
<path d="M0 0 C13.86 0 27.72 0 42 0 C42 77.55 42 155.1 42 235 C28.14 235 14.28 235 0 235 C0 157.45 0 79.9 0 0 Z " fill="#000000" transform="translate(1244,318)"/>
<path d="M0 0 C23.76 0 47.52 0 72 0 C72 49.83 72 99.66 72 151 C48.24 151 24.48 151 0 151 C0 125.92 0 100.84 0 75 C19.47 75 38.94 75 59 75 C59 67.08 59 59.16 59 51 C39.53 51 20.06 51 0 51 C0 34.17 0 17.34 0 0 Z " fill="#090909" transform="translate(1600,128)"/>
<path d="M0 0 C95.37 0 190.74 0 289 0 C289 0.66 289 1.32 289 2 C193.96 2 98.92 2 1 2 C1.144375 27.94625 1.28875 53.8925 1.4375 80.625 C1.48060303 88.77783691 1.52370605 96.93067383 1.56811523 105.33056641 C1.61142996 112.72282755 1.61142996 112.72282755 1.65589905 120.11508179 C1.67547357 123.37410704 1.69264753 126.63313483 1.70826721 129.8921814 C1.78637709 152.32705871 1.78637709 152.32705871 2.41040039 174.75146484 C2.44214828 175.58243494 2.47389616 176.41340504 2.5066061 177.26955605 C3.12362973 189.80043918 6.55096551 201.71842127 12 213 C12.42925781 213.91007813 12.85851563 214.82015625 13.30078125 215.7578125 C22.64521506 234.23610133 38.48432297 247.2209314 58.01269531 253.6640625 C81.3405031 260.76920685 105.99233663 260.03288087 128 249 C148.62210732 237.7944543 163.3705753 220.48156199 170.28125 198 C176.69551094 175.67925136 175.34151524 150.70843695 163.94384766 130.08935547 C162.22346285 127.1888033 160.41678015 124.37672992 158.5390625 121.57421875 C157 119 157 119 157 116 C173.75554437 134.37873773 176.89052623 158.08358741 176.17480469 181.97167969 C174.84831117 204.95188311 161.61789961 225.26029652 145.3125 240.625 C134.79748743 249.50620584 121.20701568 255.69824608 108 259 C147.105 259.495 147.105 259.495 187 260 C187 201.92 187 143.84 187 84 C220.66 84 254.32 84 289 84 C289 84.33 289 84.66 289 85 C255.67 85 222.34 85 188 85 C188 143.08 188 201.16 188 261 C125.96 261 63.92 261 0 261 C0 174.87 0 88.74 0 0 Z " fill="#505050" transform="translate(1383,18)"/>
<path d="M0 0 C1.6689062 0.00138269 1.6689062 0.00138269 3.37152767 0.00279331 C4.6434396 0.00141865 5.91535152 0.00004398 7.22580624 -0.00137234 C8.64839863 0.00216728 10.07099079 0.00580209 11.49358273 0.00952244 C12.98139602 0.0098043 14.46920945 0.00964659 15.95702267 0.00907993 C20.00849921 0.00879193 24.05994641 0.01468916 28.1114161 0.02165389 C32.34084918 0.02788691 36.57028285 0.02849119 40.79971981 0.0296793 C48.81432643 0.03279277 56.82891947 0.04100637 64.8435201 0.05102879 C73.96549605 0.06218944 83.08747263 0.06770025 92.2094537 0.07272422 C110.97922147 0.08318897 129.74897063 0.10153464 148.51872921 0.12304783 C148.51872921 13.98304783 148.51872921 27.84304783 148.51872921 42.12304783 C113.86872921 42.12304783 79.21872921 42.12304783 43.51872921 42.12304783 C43.51872921 63.24304783 43.51872921 84.36304783 43.51872921 106.12304783 C76.84872921 106.12304783 110.17872921 106.12304783 144.51872921 106.12304783 C144.51872921 119.32304783 144.51872921 132.52304783 144.51872921 146.12304783 C111.18872921 146.12304783 77.85872921 146.12304783 43.51872921 146.12304783 C43.51872921 170.21304783 43.51872921 194.30304783 43.51872921 219.12304783 C79.48872921 219.12304783 115.45872921 219.12304783 152.51872921 219.12304783 C152.51872921 232.65304783 152.51872921 246.18304783 152.51872921 260.12304783 C152.18872921 260.12304783 151.85872921 260.12304783 151.51872921 260.12304783 C151.51872921 247.25304783 151.51872921 234.38304783 151.51872921 221.12304783 C115.54872921 221.12304783 79.57872921 221.12304783 42.51872921 221.12304783 C42.51872921 196.04304783 42.51872921 170.96304783 42.51872921 145.12304783 C75.84872921 145.12304783 109.17872921 145.12304783 143.51872921 145.12304783 C143.51872921 132.58304783 143.51872921 120.04304783 143.51872921 107.12304783 C110.18872921 107.12304783 76.85872921 107.12304783 42.51872921 107.12304783 C42.51872921 85.34304783 42.51872921 63.56304783 42.51872921 41.12304783 C77.16872921 41.12304783 111.81872921 41.12304783 147.51872921 41.12304783 C147.51872921 28.25304783 147.51872921 15.38304783 147.51872921 2.12304783 C98.34872921 2.12304783 49.17872921 2.12304783 -1.48127079 2.12304783 C-1.48127079 87.26304783 -1.48127079 172.40304783 -1.48127079 260.12304783 C-2.14127079 260.12304783 -2.80127079 260.12304783 -3.48127079 260.12304783 C-3.50413628 227.14500163 -3.52176857 194.16695747 -3.53233612 161.18890515 C-3.5335869 157.29968382 -3.53488121 153.4104625 -3.53620243 149.52124119 C-3.53646474 148.74693427 -3.53672705 147.97262736 -3.53699731 147.1748566 C-3.54135418 134.62076863 -3.54924181 122.06668521 -3.55842359 109.51259995 C-3.56775967 96.64062416 -3.5733263 83.76865076 -3.57535928 70.89667171 C-3.57673461 62.9475239 -3.5810857 54.99838896 -3.58918726 47.04924511 C-3.59507482 40.96420386 -3.59572987 34.8791738 -3.59437847 28.79412937 C-3.594655 26.29024711 -3.5966628 23.78636438 -3.60047626 21.28248501 C-3.60540644 17.88028623 -3.60427159 14.47814386 -3.60152531 11.07594395 C-3.60443815 10.07110118 -3.60735099 9.06625841 -3.6103521 8.03096586 C-3.60836105 7.12677536 -3.60637 6.22258486 -3.60431862 5.29099464 C-3.60469834 4.50459384 -3.60507806 3.71819304 -3.60546929 2.90796191 C-3.40711198 0.05727718 -2.85743088 0.14170185 0 0 Z " fill="#BCBCBC" transform="translate(682.4812707901001,17.876952171325684)"/>
<path d="M0 0 C13.86 0 27.72 0 42 0 C42 0.66 42 1.32 42 2 C28.8 2 15.6 2 2 2 C2 86.81 2 171.62 2 259 C14.54 259 27.08 259 40 259 C39.67 196.63 39.34 134.26 39 70 C43.49433107 72.24716553 43.49433107 72.24716553 45.15625 75.46484375 C45.53217285 76.1719751 45.9080957 76.87910645 46.29541016 77.60766602 C46.6929248 78.37651123 47.09043945 79.14535645 47.5 79.9375 C52.36875662 89.0099371 57.7161624 97.67899292 63.28710938 106.33349609 C65.14329319 109.22306845 66.98645374 112.12068927 68.828125 115.01953125 C70.17683949 117.13817608 71.52579551 119.25666718 72.875 121.375 C73.47393066 122.31738525 74.07286133 123.25977051 74.68994141 124.23071289 C79.51185246 131.77544436 84.46860165 139.22571963 89.44329834 146.67027283 C95.43821593 155.6445552 101.37495076 164.65658596 107.30618286 173.67303467 C118.27950836 190.35166457 129.29493111 207.00092915 140.39044189 223.59849548 C144.89459062 230.33628019 149.38876257 237.08071276 153.8835144 243.82476807 C156.0314301 247.04743311 158.17978621 250.2698045 160.328125 253.4921875 C161.55208333 255.328125 162.77604167 257.1640625 164 259 C163.01 259 162.02 259 161 259 C159.68632507 257.551651 159.68632507 257.551651 158.34643555 255.48461914 C157.83619339 254.70890564 157.32595123 253.93319214 156.80024719 253.13397217 C156.25128281 252.27636292 155.70231842 251.41875366 155.13671875 250.53515625 C154.55734055 249.64862366 153.97796234 248.76209106 153.38102722 247.84869385 C151.47369243 244.92602493 149.58083736 241.99425185 147.6875 239.0625 C146.36397334 237.03007395 145.0392569 234.99842221 143.71337891 232.9675293 C141.04587909 228.88096885 138.38235167 224.79186286 135.72119141 220.70117188 C131.25503717 213.84644207 126.72164256 207.03788638 122.1673584 200.24151611 C113.36174309 187.09796875 104.63868036 173.90035323 95.9375 160.6875 C95.38358582 159.84675934 94.82967163 159.00601868 94.25897217 158.13980103 C49.89429859 90.78859718 49.89429859 90.78859718 42 75 C42 136.05 42 197.1 42 260 C28.14 260 14.28 260 0 260 C0 174.2 0 88.4 0 0 Z " fill="#828282" transform="translate(18,18)"/>
<path d="M0 0 C18.81 0 37.62 0 57 0 C57 77.55 57 155.1 57 235 C43.47 235 29.94 235 16 235 C15.84697099 212.10429202 15.6981388 189.20856946 15.5570364 166.31278515 C15.49138754 155.68238052 15.42382892 145.05199438 15.35180664 134.42163086 C15.28905213 125.15846398 15.22984798 115.89528246 15.17494446 106.63206559 C15.14573653 101.72524609 15.11472553 96.81845265 15.07946587 91.91167259 C15.0463574 87.29645976 15.01798396 82.68124241 14.99329376 78.0659771 C14.98337243 76.36920299 14.97169847 74.67243812 14.95816994 72.97568893 C14.94000136 70.66459281 14.92805636 68.35354659 14.91770935 66.04240417 C14.90941321 64.74728503 14.90111708 63.45216589 14.89256954 62.11780071 C15 59 15 59 16 56 C16.66 56 17.32 56 18 56 C18 114.41 18 172.82 18 233 C30.21 233 42.42 233 55 233 C55 156.77 55 80.54 55 2 C36.85 2 18.7 2 0 2 C-0.33 4.31 -0.66 6.62 -1 9 C-1.60083008 11.24072266 -1.60083008 11.24072266 -2.26953125 13.1640625 C-2.51896484 13.89496094 -2.76839844 14.62585938 -3.02539062 15.37890625 C-3.28513672 16.12011719 -3.54488281 16.86132812 -3.8125 17.625 C-6.37369468 25.03583344 -8.72191626 32.49725746 -11 40 C-19.10369367 66.66622325 -19.10369367 66.66622325 -22.83569336 76.74438477 C-23.94010469 79.8325217 -24.93657292 82.9289279 -25.890625 86.06640625 C-26.40931152 87.7668811 -26.40931152 87.7668811 -26.93847656 89.50170898 C-27.2887793 90.65614502 -27.63908203 91.81058105 -28 93 C-29.33143216 97.37558198 -30.66521196 101.75044074 -32 106.125 C-32.495 107.75888672 -32.495 107.75888672 -33 109.42578125 C-34.8740961 115.55319701 -36.90431013 121.58379713 -39.12939453 127.59228516 C-40.2058011 130.56915605 -41.09918094 133.57305502 -41.9375 136.625 C-43.44113519 142.01203947 -44.98013532 147.3857009 -46.5625 152.75 C-46.77406738 153.46808838 -46.98563477 154.18617676 -47.20361328 154.92602539 C-48.78573306 160.28902798 -50.38243559 165.64757144 -52 171 C-52.66 170.67 -53.32 170.34 -54 170 C-53.29044609 166.10943768 -52.27539148 162.38943878 -51.12890625 158.60546875 C-50.83895782 157.6481208 -50.83895782 157.6481208 -50.54315186 156.6714325 C-49.88632403 154.50907266 -49.22486156 152.3481709 -48.5625 150.1875 C-48.21111465 149.03812958 -48.21111465 149.03812958 -47.85263062 147.86553955 C-41.29302349 126.44076863 -34.36755083 105.13162428 -27.48504639 83.80900574 C-23.40681786 71.17095958 -19.35764376 58.5236673 -15.3125 45.875 C-14.67164883 43.87222732 -14.03078023 41.86946022 -13.38989258 39.86669922 C-13.08323166 38.90796906 -12.77657074 37.94923889 -12.46061707 36.9614563 C-11.86196897 35.09000205 -11.26302883 33.21864119 -10.66377258 31.34738159 C-9.10536061 26.47655049 -7.55829208 21.60240367 -6.02490234 16.72363281 C-5.70321579 15.70318878 -5.38152924 14.68274475 -5.0500946 13.63137817 C-4.43226662 11.67018075 -3.8169388 9.7081935 -3.204422 7.74533081 C-2.92966537 6.87433746 -2.65490875 6.00334412 -2.37182617 5.10595703 C-2.13034348 4.33510773 -1.88886078 3.56425842 -1.64006042 2.77005005 C-1 1 -1 1 0 0 Z " fill="#797979" transform="translate(1154,318)"/>
<path d="M0 0 C20.46 0 40.92 0 62 0 C62 84.15 62 168.3 62 255 C47.48 255 32.96 255 18 255 C17.67 190.98 17.34 126.96 17 61 C17.66 61 18.32 61 19 61 C19 124.69 19 188.38 19 254 C32.53 254 46.06 254 60 254 C60 170.84 60 87.68 60 2 C40.2 2 20.4 2 0 2 C-0.66 4.97 -1.32 7.94 -2 11 C-2.69590798 13.40570436 -3.4252774 15.8019774 -4.1875 18.1875 C-4.39963135 18.85475098 -4.6117627 19.52200195 -4.83032227 20.20947266 C-5.29739898 21.67742804 -5.76613621 23.14485587 -6.23632812 24.61181641 C-7.05444105 27.17025012 -7.86377207 29.73135641 -8.671875 32.29296875 C-11.68447472 41.82670368 -14.76001372 51.33492619 -17.94335938 60.81298828 C-19.66973983 65.96783074 -21.29811398 71.14612816 -22.87890625 76.34765625 C-26.49667293 88.13376023 -30.26276818 99.87512931 -34.1875 111.5625 C-36.57414349 118.6753916 -38.83223876 125.81693053 -41 133 C-42.12321775 136.7088752 -43.24886716 140.41700901 -44.375 144.125 C-44.67422363 145.11218018 -44.97344727 146.09936035 -45.28173828 147.11645508 C-46.73078216 151.88398833 -48.19639326 156.64469877 -49.71484375 161.390625 C-49.98441895 162.23351074 -50.25399414 163.07639648 -50.53173828 163.94482422 C-51.0329636 165.50492329 -51.53755689 167.0639466 -52.04638672 168.62158203 C-53.4956797 173.12901617 -54.57129456 177.56527371 -55.36401367 182.23681641 C-55.57388916 182.81866699 -55.78376465 183.40051758 -56 184 C-56.99 184.33 -57.98 184.66 -59 185 C-51.72759606 155.14020879 -41.2925624 125.96715847 -31.80874634 96.75442505 C-27.98440499 84.97106463 -24.20260049 73.17428962 -20.43466187 61.37277222 C-18.82023765 56.31694401 -17.20307958 51.26199066 -15.5859375 46.20703125 C-15.28276108 45.25933365 -14.97958466 44.31163605 -14.66722107 43.33522034 C-13.77828129 40.55677069 -12.88917399 37.77837471 -12 35 C-11.71193481 34.09973083 -11.42386963 33.19946167 -11.1270752 32.27191162 C-9.51734284 27.24255419 -7.90444712 22.21423477 -6.28616333 17.18762207 C-5.80922507 15.70465443 -5.33334898 14.22134471 -4.85861206 12.7376709 C-4.2224076 10.74995967 -3.58246096 8.76349504 -2.94140625 6.77734375 C-2.58763916 5.67640381 -2.23387207 4.57546387 -1.86938477 3.44116211 C-1 1 -1 1 0 0 Z " fill="#737373" transform="translate(1264,23)"/>
<path d="M0 0 C12.21 0 24.42 0 37 0 C37 77.55 37 155.1 37 235 C0 235 0 235 -8.71875 227.359375 C-10.59918213 224.69918823 -10.59918213 224.69918823 -11.73535156 222.30029297 C-12.18591919 221.39744568 -12.63648682 220.49459839 -13.10070801 219.56439209 C-13.56247437 218.6356427 -14.02424072 217.70689331 -14.5 216.75 C-15.58153046 214.84602059 -16.67795549 212.95043526 -17.78808594 211.06298828 C-20.09987304 207.10572642 -22.34218877 203.11948723 -24.54492188 199.10058594 C-29.62732542 189.96195629 -35.51948396 181.35660283 -41.35913086 172.69128418 C-44.44506714 168.09505204 -47.47772088 163.46399126 -50.515625 158.8359375 C-55.64804624 151.03769638 -60.81003623 143.26005297 -66 135.5 C-75.49352556 121.29252481 -84.80152019 106.97984107 -93.875 92.5 C-94.48158447 91.53320312 -95.08816895 90.56640625 -95.71313477 89.5703125 C-99.94332468 82.789934 -104.00740055 75.9227382 -108 69 C-108.33 71.31 -108.66 73.62 -109 76 C-109.33 76 -109.66 76 -110 76 C-110 71.71 -110 67.42 -110 63 C-107.17942271 65.82057729 -105.57843018 68.18198262 -103.59375 71.6015625 C-102.93834229 72.72248291 -102.28293457 73.84340332 -101.60766602 74.99829102 C-101.09225754 75.8857048 -101.09225754 75.8857048 -100.56643677 76.79104614 C-94.46872584 87.2772942 -88.19614188 97.61247841 -81.49951172 107.72851562 C-79.84520133 110.23449151 -78.20490312 112.74928176 -76.56640625 115.265625 C-58.87773006 142.41762999 -41.04722567 169.48071835 -23.0625 196.4375 C-22.66320282 197.03626953 -22.26390564 197.63503906 -21.85250854 198.25195312 C-17.80550132 204.31970609 -13.74696854 210.37947213 -9.66796875 216.42578125 C-9.0020874 217.41586182 -8.33620605 218.40594238 -7.65014648 219.42602539 C-6.42318483 221.24952088 -5.19248917 223.070512 -3.95727539 224.88842773 C-3.42996826 225.67290283 -2.90266113 226.45737793 -2.359375 227.265625 C-1.90014648 227.94399414 -1.44091797 228.62236328 -0.96777344 229.32128906 C0 231 0 231 0 233 C11.88 233 23.76 233 36 233 C36 156.77 36 80.54 36 2 C24.78 2 13.56 2 2 2 C2 58.43 2 114.86 2 173 C1.34 172.67 0.68 172.34 0 172 C0 115.24 0 58.48 0 0 Z " fill="#999999" transform="translate(1635,318)"/>
<path d="M0 0 C1.73527529 0.00138269 1.73527529 0.00138269 3.50560665 0.00279331 C4.1475788 0.00193889 4.78955094 0.00108446 5.45097679 0.00020415 C7.61756553 -0.00145239 9.78407806 0.0040735 11.95065975 0.00952244 C13.4975856 0.0098043 15.04451157 0.0096466 16.59143734 0.00907993 C20.80406531 0.00879191 25.01666505 0.01468934 29.22928643 0.02165389 C33.62688286 0.02788671 38.02447987 0.02849117 42.42208004 0.0296793 C50.75543011 0.03279283 59.08876714 0.04100651 67.42211145 0.05102879 C76.90683753 0.06218926 86.39156421 0.06770021 95.87629521 0.07272422 C115.39254588 0.0831891 134.90878439 0.10078896 154.42502499 0.12304783 C154.42502499 0.78304783 154.42502499 1.44304783 154.42502499 2.12304783 C102.94502499 2.12304783 51.46502499 2.12304783 -1.57497501 2.12304783 C-1.57497501 13.67304783 -1.57497501 25.22304783 -1.57497501 37.12304783 C17.56502499 37.12304783 36.70502499 37.12304783 56.42502499 37.12304783 C56.42502499 102.13304783 56.42502499 167.14304783 56.42502499 234.12304783 C69.62502499 234.12304783 82.82502499 234.12304783 96.42502499 234.12304783 C96.42502499 234.45304783 96.42502499 234.78304783 96.42502499 235.12304783 C82.56502499 235.12304783 68.70502499 235.12304783 54.42502499 235.12304783 C54.42502499 170.11304783 54.42502499 105.10304783 54.42502499 38.12304783 C35.28502499 38.12304783 16.14502499 38.12304783 -3.57497501 38.12304783 C-3.59560001 32.03867283 -3.61622501 25.95429783 -3.63747501 19.68554783 C-3.64657902 17.76299168 -3.65568302 15.84043552 -3.6650629 13.85962009 C-3.66798208 12.34456547 -3.67053064 10.82951006 -3.67263126 9.31445408 C-3.67774723 8.52067356 -3.6828632 7.72689304 -3.68813419 6.90905857 C-3.68844458 4.98001953 -3.63733395 3.05107871 -3.57497501 1.12304783 C-2.57497501 0.12304783 -2.57497501 0.12304783 0 0 Z " fill="#ABABAB" transform="translate(560.5749750137329,317.8769521713257)"/>
<path d="M0 0 C21.45 0 42.9 0 65 0 C65 0.66 65 1.32 65 2 C44.21 2 23.42 2 2 2 C2 85.16 2 168.32 2 254 C15.53 254 29.06 254 43 254 C43 190.97 43 127.94 43 63 C43.33 63 43.66 63 44 63 C44 126.36 44 189.72 44 255 C29.48 255 14.96 255 0 255 C0 170.85 0 86.7 0 0 Z " fill="#868686" transform="translate(1083,23)"/>
<path d="M0 0 C12.21 0 24.42 0 37 0 C37 77.55 37 155.1 37 235 C0 235 0 235 -9.359375 226.5078125 C-11.42248535 223.61024475 -11.42248535 223.61024475 -12.69726562 221.03540039 C-13.19653564 220.07135284 -13.69580566 219.1073053 -14.21020508 218.11404419 C-14.7183374 217.12765961 -15.22646973 216.14127502 -15.75 215.125 C-16.92085713 213.1125126 -18.10529771 211.10787074 -19.30273438 209.11108398 C-21.62876316 205.19511224 -23.88239941 201.25197693 -26.07226562 197.25830078 C-29.54589991 190.94838731 -33.45417513 185.02089662 -37.5 179.0625 C-38.79080849 177.0848638 -40.07705571 175.10424497 -41.359375 173.12109375 C-48.38212205 162.31724025 -55.50045001 151.57577559 -62.6003418 140.82254028 C-86.60521337 104.46386126 -86.60521337 104.46386126 -94.75 91.1875 C-95.27803223 90.32785645 -95.80606445 89.46821289 -96.35009766 88.58251953 C-97.40218922 86.86772828 -98.4531823 85.15226245 -99.50292969 83.43603516 C-100.93937954 81.0986417 -102.39306567 78.77289958 -103.8515625 76.44921875 C-104.69311711 75.0913991 -105.53428939 73.73334238 -106.375 72.375 C-106.95652832 71.46077271 -106.95652832 71.46077271 -107.54980469 70.52807617 C-108.5859375 68.8359375 -108.5859375 68.8359375 -110 66 C-109.67 65.01 -109.34 64.02 -109 63 C-108.39865234 64.03048462 -108.39865234 64.03048462 -107.78515625 65.08178711 C-93.83159789 88.94086897 -78.97758745 112.13024277 -63.61108398 135.10083008 C-57.00680535 144.97458155 -50.45353218 154.88030666 -43.9375 164.8125 C-43.00612077 166.23170077 -42.07472415 167.65089014 -41.14331055 169.07006836 C-39.69091678 171.28315039 -38.2385481 173.49624883 -36.78630066 175.70942688 C-30.60513758 185.12796166 -24.41371508 194.53973955 -18.21780396 203.94857788 C-16.91284605 205.93069482 -15.608377 207.9131337 -14.30441284 209.89590454 C-12.48018614 212.6696781 -10.65435169 215.44238669 -8.828125 218.21484375 C-8.28231277 219.04549347 -7.73650055 219.87614319 -7.17414856 220.73196411 C-6.66711899 221.50096039 -6.16008942 222.26995667 -5.63769531 223.06225586 C-4.9789743 224.06306435 -4.9789743 224.06306435 -4.3069458 225.08409119 C-3.36531275 226.46447211 -2.36683941 227.80667797 -1.33514404 229.12110901 C0 231 0 231 0 233 C11.88 233 23.76 233 36 233 C36 156.77 36 80.54 36 2 C24.45 2 12.9 2 1 2 C1.33 58.76 1.66 115.52 2 174 C-1.36490172 169.51346437 -1.36650595 168.45291477 -1.32279968 163.06512451 C-1.3212794 162.36750291 -1.31975913 161.66988131 -1.31819278 160.95111966 C-1.30942402 158.61389953 -1.2790507 156.27746286 -1.2487793 153.94042969 C-1.23807093 152.26499193 -1.22869405 150.58954521 -1.22055054 148.91409302 C-1.19465783 144.36470975 -1.15010769 139.81567668 -1.10225272 135.26647854 C-1.05540285 130.51262814 -1.02564849 125.75867181 -0.99409485 121.00469971 C-0.93173584 112.00196954 -0.85396182 102.9994409 -0.77067453 93.99688268 C-0.67660535 83.74797752 -0.59968257 73.49896624 -0.52421319 63.24990988 C-0.36857912 42.16641857 -0.18910648 21.08321948 0 0 Z " fill="#858585" transform="translate(509,318)"/>
<path d="M0 0 C13.86 0 27.72 0 42 0 C42 77.55 42 155.1 42 235 C28.14 235 14.28 235 0 235 C0 157.45 0 79.9 0 0 Z M2 2 C2 78.56 2 155.12 2 234 C14.87 234 27.74 234 41 234 C41 157.44 41 80.88 41 2 C28.13 2 15.26 2 2 2 Z " fill="#9A9A9A" transform="translate(1244,318)"/>
<path d="M0 0 C33.66 0 67.32 0 102 0 C102 0.33 102 0.66 102 1 C68.67 1 35.34 1 1 1 C1 59.08 1 117.16 1 177 C-16.4075 177.0825 -33.815 177.165 -51.75 177.25 C-57.2062793 177.28641602 -62.66255859 177.32283203 -68.28417969 177.36035156 C-75.04931641 177.37841797 -75.04931641 177.37841797 -78.23614502 177.3817749 C-80.41863283 177.38783795 -82.60110896 177.40173712 -84.7835083 177.42230225 C-103.59913694 177.59043485 -121.89027396 176.59266065 -139 168 C-139.90621094 167.57074219 -140.81242187 167.14148438 -141.74609375 166.69921875 C-149.40510346 162.84255429 -155.61471756 157.63866128 -162 152 C-161.505 151.01 -161.505 151.01 -161 150 C-159.96166016 150.94359375 -159.96166016 150.94359375 -158.90234375 151.90625 C-147.63137359 161.76649267 -135.66373102 168.47327988 -121 172 C-119.62714844 172.33644531 -119.62714844 172.33644531 -118.2265625 172.6796875 C-95.34502904 177.35854448 -71.37391089 173.18446478 -51.6875 160.6875 C-30.0440637 146.31155333 -18.71598074 125.78058494 -13.5390625 100.7734375 C-10.04938437 78.6092656 -16.14034336 55.96282087 -28.4609375 37.57421875 C-30 35 -30 35 -30 32 C-13.24445563 50.37873773 -10.10947377 74.08358741 -10.82519531 97.97167969 C-12.15168883 120.95188311 -25.38210039 141.26029652 -41.6875 156.625 C-52.20251257 165.50620584 -65.79298432 171.69824608 -79 175 C-39.895 175.495 -39.895 175.495 0 176 C0 117.92 0 59.84 0 0 Z " fill="#A6A6A6" transform="translate(1570,102)"/>
<path d="M0 0 C15.18 0 30.36 0 46 0 C46 54.12 46 108.24 46 164 C45.67 164 45.34 164 45 164 C45 110.54 45 57.08 45 2 C30.48 2 15.96 2 1 2 C1.0314209 9.65062622 1.0314209 9.65062622 1.06347656 17.45581055 C1.12995765 34.36716965 1.17422405 51.27853412 1.20724869 68.18999004 C1.22779387 78.43654269 1.25575887 88.68297074 1.30175781 98.92944336 C1.34187377 107.86978762 1.36749111 116.81004155 1.37635398 125.75047332 C1.38152721 130.47575282 1.39351417 135.2007741 1.42292023 139.92597008 C1.77630383 199.10907307 1.77630383 199.10907307 -16.59765625 218.1015625 C-30.3982838 229.00742427 -46.10325695 230.20420818 -63 229 C-72.68094769 227.32281827 -81.31750157 221.05619077 -88 214 C-87.505 213.01 -87.505 213.01 -87 212 C-86.47792969 212.51949219 -85.95585937 213.03898438 -85.41796875 213.57421875 C-74.33106643 224.07862182 -62.03895459 227.63490881 -47.0390625 227.24609375 C-35.11155905 226.68146158 -23.97710796 222.18080733 -15.7265625 213.36328125 C-6.1626673 200.27242922 -1.91311362 184.6008624 -1.84851074 168.52127075 C-1.84427833 167.80137368 -1.84004592 167.08147661 -1.83568525 166.33976448 C-1.82274586 163.94542014 -1.81665488 161.55110902 -1.81054688 159.15673828 C-1.80259801 157.43321025 -1.79420954 155.7096842 -1.78541565 153.98616028 C-1.76740697 150.28450219 -1.75237474 146.58284832 -1.73963928 142.88116837 C-1.7193805 137.03304486 -1.69173679 131.1849705 -1.66296387 125.33688354 C-1.59785399 111.87602592 -1.54226491 98.4151322 -1.48697662 84.95423126 C-1.4361638 72.5995209 -1.38335423 60.24482859 -1.32245111 47.8901633 C-1.29404687 42.07071216 -1.27047239 36.25126707 -1.25052643 30.43178105 C-1.23718266 26.82293906 -1.21976929 23.21412524 -1.20121574 19.60530663 C-1.19343151 17.92544323 -1.18737437 16.24557086 -1.18312263 14.56569481 C-1.1771159 12.28269051 -1.16508808 9.99979715 -1.15148926 7.71682739 C-1.14633553 6.43633074 -1.14118179 5.15583408 -1.13587189 3.8365345 C-1 1 -1 1 0 0 Z " fill="#B8B8B8" transform="translate(408,18)"/>
<path d="M0 0 C15.18 0 30.36 0 46 0 C46 55.77 46 111.54 46 169 C45.67 169 45.34 169 45 169 C45 113.89 45 58.78 45 2 C30.48 2 15.96 2 1 2 C1.01571045 7.11612793 1.0314209 12.23225586 1.04760742 17.50341797 C1.09742737 34.4507351 1.13065174 51.39805521 1.15543652 68.34542656 C1.1708577 78.61557645 1.19185562 88.88565661 1.22631836 99.15576172 C1.25636697 108.1147546 1.27560944 117.07369693 1.28226548 126.0327388 C1.28615174 130.76960967 1.29518407 135.50633603 1.31719017 140.24316025 C1.33780059 144.71649759 1.34378513 149.18963314 1.33932304 153.66301346 C1.34013742 155.29059705 1.34595502 156.91818857 1.35761642 158.54573059 C1.45261556 172.50868111 0.95835968 187.87448791 -5.3125 200.625 C-5.61736328 201.27903809 -5.92222656 201.93307617 -6.23632812 202.60693359 C-12.36148038 215.35705562 -21.00734643 222.56574299 -34 228 C-39.53889039 229.32425373 -45.01983916 229.26069323 -50.6875 229.3125 C-51.72583984 229.34150391 -52.76417969 229.37050781 -53.83398438 229.40039062 C-63.55275743 229.4796032 -70.84517691 226.71529384 -79 221.5 C-79.9075 220.9328125 -80.815 220.365625 -81.75 219.78125 C-84.03881141 217.9692743 -84.96111525 216.69165595 -86 214 C-85.46632813 214.37511719 -84.93265625 214.75023437 -84.3828125 215.13671875 C-69.89021253 225.09097859 -55.8945458 229.51396441 -38.39453125 226.34765625 C-25.72021918 222.81944274 -16.5484095 216.50073741 -10 205 C-1.07717992 186.47874161 -0.87229406 166.45000025 -0.79467773 146.33422852 C-0.78506894 144.7261227 -0.77505726 143.11801925 -0.76467896 141.50991821 C-0.73794833 137.19484373 -0.71676912 132.87975867 -0.69667697 128.56464887 C-0.67461785 124.03632065 -0.64732786 119.50802383 -0.62062073 114.97972107 C-0.57096042 106.4272818 -0.52592415 97.87482485 -0.48259836 89.3223514 C-0.43299621 79.57609807 -0.37816425 69.82987629 -0.32291877 60.08365357 C-0.20950871 40.05579718 -0.1032726 20.02791141 0 0 Z " fill="#BEBEBE" transform="translate(1010,18)"/>
<path d="M0 0 C13.53 0 27.06 0 41 0 C41 85.8 41 171.6 41 260 C40.67 260 40.34 260 40 260 C40 174.86 40 89.72 40 2 C27.13 2 14.26 2 1 2 C1.33 65.03 1.66 128.06 2 193 C-1.24659312 189.75340688 -1.34484571 188.99187713 -1.36107081 184.63986427 C-1.34844134 183.90932261 -1.33581187 183.17878096 -1.32279968 182.42610168 C-1.3212794 181.64766346 -1.31975913 180.86922524 -1.31819278 180.06719798 C-1.30940079 177.4505182 -1.27901024 174.83453108 -1.2487793 172.21801758 C-1.23807453 170.34568465 -1.22869672 168.47334373 -1.22055054 166.60099792 C-1.1946245 161.51027014 -1.15006923 156.41985355 -1.10225272 151.32929063 C-1.05544893 146.01221238 -1.02566142 140.69504 -0.99409485 135.37785339 C-0.93169951 125.30554137 -0.85392647 115.23340869 -0.77067453 105.16124982 C-0.67665272 93.69593661 -0.59970388 82.23052891 -0.52421319 70.76508105 C-0.36851807 47.1765533 -0.18905062 23.58828562 0 0 Z " fill="#B2B2B2" transform="translate(181,18)"/>
<path d="M0 0 C1.09920273 0.00222061 2.19840546 0.00444122 3.33091736 0.00672913 C4.57212845 0.00680466 5.81333954 0.00688019 7.09216309 0.00695801 C8.45682311 0.01206541 9.82148274 0.01728142 11.18614197 0.02259827 C12.57476755 0.02446251 13.96339379 0.02588638 15.35202026 0.02688599 C19.01319686 0.03071065 22.67433402 0.04054048 26.335495 0.05158997 C30.06890835 0.06180519 33.80232805 0.06638384 37.53575134 0.07142639 C44.86584748 0.08216281 52.19591108 0.0992386 59.52598572 0.12025452 C59.52598572 0.78025452 59.52598572 1.44025452 59.52598572 2.12025452 C39.06598572 2.12025452 18.60598572 2.12025452 -2.47401428 2.12025452 C-3.13401428 5.09025452 -3.79401428 8.06025452 -4.47401428 11.12025452 C-5.16992226 13.52595888 -5.89929168 15.92223191 -6.66151428 18.30775452 C-6.87364563 18.97500549 -7.08577698 19.64225647 -7.30433655 20.32972717 C-7.77141326 21.79768256 -8.24015049 23.26511038 -8.71034241 24.73207092 C-9.52845533 27.29050463 -10.33778635 29.85161093 -11.14588928 32.41322327 C-14.158489 41.9469582 -17.234028 51.4551807 -20.41737366 60.9332428 C-22.14375412 66.08808525 -23.77212826 71.26638268 -25.35292053 76.46791077 C-28.97068721 88.25401474 -32.73678246 99.99538383 -36.66151428 111.68275452 C-39.04815777 118.79564612 -41.30625304 125.93718505 -43.47401428 133.12025452 C-44.59723203 136.82912971 -45.72288144 140.53726353 -46.84901428 144.24525452 C-47.14823792 145.23243469 -47.44746155 146.21961487 -47.75575256 147.23670959 C-49.20479644 152.00424284 -50.67040754 156.76495329 -52.18885803 161.51087952 C-52.45843323 162.35376526 -52.72800842 163.196651 -53.00575256 164.06507874 C-53.50697788 165.62517781 -54.01157117 167.18420111 -54.520401 168.74183655 C-55.96969398 173.24927068 -57.04530884 177.68552823 -57.83802795 182.35707092 C-58.04790344 182.93892151 -58.25777893 183.52077209 -58.47401428 184.12025452 C-59.46401428 184.45025452 -60.45401428 184.78025452 -61.47401428 185.12025452 C-54.20161035 155.26046331 -43.76657668 126.08741299 -34.28276062 96.87467957 C-30.45841927 85.09131914 -26.67661478 73.29454413 -22.90867615 61.49302673 C-21.29425193 56.43719853 -19.67709386 51.38224518 -18.05995178 46.32728577 C-17.75677536 45.37958817 -17.45359894 44.43189056 -17.14123535 43.45547485 C-16.25229557 40.6770252 -15.36318827 37.89862922 -14.47401428 35.12025452 C-14.1859491 34.21998535 -13.89788391 33.31971619 -13.60108948 32.39216614 C-11.99135712 27.36280871 -10.3784614 22.33448928 -8.76017761 17.30787659 C-8.28323935 15.82490895 -7.80736327 14.34159922 -7.33262634 12.85792542 C-6.69642189 10.87021418 -6.05647525 8.88374955 -5.41542053 6.89759827 C-5.06165344 5.79665833 -4.70788635 4.69571838 -4.34339905 3.56141663 C-3.12922075 0.15210217 -3.12922075 0.15210217 0 0 Z " fill="#D3D3D3" transform="translate(1266.4740142822266,22.879745483398438)"/>
<path d="M0 0 C0.66 0 1.32 0 2 0 C2 58.74 2 117.48 2 178 C14.87 178 27.74 178 41 178 C41 178.33 41 178.66 41 179 C27.47 179 13.94 179 0 179 C-0.15302901 156.10429202 -0.3018612 133.20856946 -0.4429636 110.31278515 C-0.50861246 99.68238052 -0.57617108 89.05199438 -0.64819336 78.42163086 C-0.71094787 69.15846398 -0.77015202 59.89528246 -0.82505554 50.63206559 C-0.85426347 45.72524609 -0.88527447 40.81845265 -0.92053413 35.91167259 C-0.9536426 31.29645976 -0.98201604 26.68124241 -1.00670624 22.0659771 C-1.01662757 20.36920299 -1.02830153 18.67243812 -1.04183006 16.97568893 C-1.05999864 14.66459281 -1.07194364 12.35354659 -1.08229065 10.04240417 C-1.09058679 8.74728503 -1.09888292 7.45216589 -1.10743046 6.11780071 C-1 3 -1 3 0 0 Z " fill="#CCCCCC" transform="translate(1170,374)"/>
<path d="M0 0 C1.73527529 0.00138269 1.73527529 0.00138269 3.50560665 0.00279331 C4.1475788 0.00193889 4.78955094 0.00108446 5.45097679 0.00020415 C7.61756553 -0.00145239 9.78407806 0.0040735 11.95065975 0.00952244 C13.4975856 0.0098043 15.04451157 0.0096466 16.59143734 0.00907993 C20.80406531 0.00879191 25.01666505 0.01468934 29.22928643 0.02165389 C33.62688286 0.02788671 38.02447987 0.02849117 42.42208004 0.0296793 C50.75543011 0.03279283 59.08876714 0.04100651 67.42211145 0.05102879 C76.90683753 0.06218926 86.39156421 0.06770021 95.87629521 0.07272422 C115.39254588 0.0831891 134.90878439 0.10078896 154.42502499 0.12304783 C154.42502499 0.78304783 154.42502499 1.44304783 154.42502499 2.12304783 C102.94502499 2.12304783 51.46502499 2.12304783 -1.57497501 2.12304783 C-1.57497501 14.00304783 -1.57497501 25.88304783 -1.57497501 38.12304783 C-2.23497501 38.12304783 -2.89497501 38.12304783 -3.57497501 38.12304783 C-3.59962429 32.87199341 -3.61781069 27.62097238 -3.62990665 22.369874 C-3.6349472 20.58210762 -3.64177955 18.79434538 -3.65041447 17.00659275 C-3.66249232 14.44253615 -3.66820596 11.87853386 -3.67263126 9.31445408 C-3.67779255 8.51028553 -3.68295383 7.70611698 -3.68827152 6.87757969 C-3.68846716 4.95903068 -3.63699484 3.04059415 -3.57497501 1.12304783 C-2.57497501 0.12304783 -2.57497501 0.12304783 0 0 Z " fill="#CBCBCB" transform="translate(560.5749750137329,317.8769521713257)"/>
<path d="M0 0 C0.33 0 0.66 0 1 0 C1.07021704 23.22727317 1.12305025 46.45452873 1.15543652 69.68188667 C1.17087663 80.4678109 1.19191135 91.25366901 1.22631836 102.03955078 C1.25630836 111.44531071 1.27559573 120.85102273 1.28226548 130.25682914 C1.28616152 135.23278416 1.29525774 140.20860217 1.31719017 145.18451309 C1.33770729 149.87780345 1.34380334 154.57090169 1.33932304 159.26423264 C1.34014149 160.97734881 1.34601575 162.6904721 1.35761642 164.40354919 C1.44251974 177.5999391 0.67109419 190.40781611 -5.6875 202.3125 C-6.03925293 202.98273193 -6.39100586 203.65296387 -6.75341797 204.34350586 C-13.46160587 216.70171816 -22.13341699 222.43275898 -35.23046875 227.16796875 C-46.775547 229.71626063 -62.62245391 230.20247374 -73 224 C-78.01565253 220.73719986 -82.87165233 217.35920921 -87 213 C-86.505 212.01 -86.505 212.01 -86 211 C-85.47792969 211.51949219 -84.95585937 212.03898438 -84.41796875 212.57421875 C-73.33106643 223.07862182 -61.03895459 226.63490881 -46.0390625 226.24609375 C-34.11155905 225.68146158 -22.97710796 221.18080733 -14.7265625 212.36328125 C-5.15846918 199.26668293 -0.9226084 183.59907167 -0.84178162 167.51454163 C-0.83684364 166.79393899 -0.83190566 166.07333635 -0.82681805 165.33089727 C-0.8115509 162.93422339 -0.80311194 160.53757606 -0.79467773 158.14086914 C-0.78509071 156.41571828 -0.77508015 154.69056973 -0.76467896 152.96542358 C-0.7377131 148.29451428 -0.71665864 143.62359496 -0.69667697 138.95265126 C-0.67476593 134.06659588 -0.64740234 129.18057108 -0.62062073 124.29454041 C-0.57076292 115.04768122 -0.52579851 105.800805 -0.48259836 96.55391258 C-0.43316683 86.02430523 -0.37827068 75.49472858 -0.32291877 64.96515095 C-0.20920486 43.31012925 -0.10234286 21.65507823 0 0 Z " fill="#E4E4E4" transform="translate(407,19)"/>
<path d="M0 0 C1.04728271 0.00563965 2.09456543 0.0112793 3.17358398 0.01708984 C22.22398924 0.31271724 40.27027083 5.17056992 55.3125 17.3125 C57.140625 19.5546875 57.140625 19.5546875 58.3125 21.3125 C55.14317782 19.82277252 52.33793262 18.01963083 49.4375 16.0625 C29.59092754 3.36069363 5.23662494 -1.05723211 -17.90429688 3.49072266 C-38.27360466 8.03417604 -55.91892285 18.07400308 -67.9375 35.49609375 C-78.05804009 51.78383796 -80.32793281 70.41219112 -76.1875 89 C-73.34322789 100.44809476 -68.08301539 111.91698461 -59.6875 120.3125 C-60.0175 120.9725 -60.3475 121.6325 -60.6875 122.3125 C-73.80483024 109.43366667 -79.64582659 92.7734352 -80.10742188 74.64990234 C-80.22138647 55.038495 -75.63996144 39.08867026 -62.41796875 24.06640625 C-45.81705432 7.3229947 -23.23420106 -0.13236706 0 0 Z " fill="#D7D7D7" transform="translate(563.6875,9.6875)"/>
<path d="M0 0 C4.34471377 3.69351546 6.6191744 8.38858074 9.3125 13.3125 C15.48032034 24.35601034 22.33845587 34.86784494 29.30908203 45.41552734 C31.62080983 48.94887278 33.84555606 52.53182009 36.0625 56.125 C39.72334713 62.05462223 43.54521463 67.86457285 47.42578125 73.65234375 C52.31087976 80.95933401 57.17551302 88.27907233 62.0078125 95.62109375 C62.58569519 96.49905609 63.16357788 97.37701843 63.75897217 98.28158569 C64.9415138 100.07864451 66.12391626 101.8757949 67.30618286 103.67303467 C78.27950836 120.35166457 89.29493111 137.00092915 100.39044189 153.59849548 C104.89459062 160.33628019 109.38876257 167.08071276 113.8835144 173.82476807 C116.0314301 177.04743311 118.17978621 180.2698045 120.328125 183.4921875 C121.55208333 185.328125 122.77604167 187.1640625 124 189 C123.01 189 122.02 189 121 189 C119.68632507 187.551651 119.68632507 187.551651 118.34643555 185.48461914 C117.83619339 184.70890564 117.32595123 183.93319214 116.80024719 183.13397217 C116.25128281 182.27636292 115.70231842 181.41875366 115.13671875 180.53515625 C114.55734055 179.64862366 113.97796234 178.76209106 113.38102722 177.84869385 C111.47369243 174.92602493 109.58083736 171.99425185 107.6875 169.0625 C106.36397334 167.03007395 105.0392569 164.99842221 103.71337891 162.9675293 C101.04587909 158.88096885 98.38235167 154.79186286 95.72119141 150.70117188 C91.25503717 143.84644207 86.72164256 137.03788638 82.1673584 130.24151611 C73.36174309 117.09796875 64.63868036 103.90035323 55.9375 90.6875 C55.38358582 89.84675934 54.82967163 89.00601868 54.25897217 88.13980103 C9.89429859 20.78859718 9.89429859 20.78859718 2 5 C1.67 6.98 1.34 8.96 1 11 C0.67 11 0.34 11 0 11 C0 7.37 0 3.74 0 0 Z " fill="#D3D3D3" transform="translate(58,88)"/>
<path d="M0 0 C3.52074631 3.17330424 6.81173177 6.49431568 10 10 C9.67 10.66 9.34 11.32 9 12 C8.3709375 11.33613281 7.741875 10.67226562 7.09375 9.98828125 C-2.17665408 0.42468668 -10.41210294 -3.96939257 -23 -8 C-23.63808594 -8.20496094 -24.27617188 -8.40992188 -24.93359375 -8.62109375 C-40.48125255 -11.47198771 -56.98001281 -7.76187818 -70 1 C-83.1376599 10.30946761 -90.6362742 25.40684381 -93.4296875 40.953125 C-96.05472316 57.80861715 -93.25640784 75.62228808 -83.1875 89.625 C-82.58292969 90.40101563 -81.97835938 91.17703125 -81.35546875 91.9765625 C-80 94 -80 94 -80 97 C-92.41739813 83.9912972 -96.67302363 66.99871785 -96.47045898 49.43920898 C-95.817971 31.35920183 -89.21430596 15.61782687 -76 3 C-55.01183571 -15.61059881 -22.48349812 -16.46113255 0 0 Z " fill="#D8D8D8" transform="translate(1508,138)"/>
<path d="M0 0 C12.21 0 24.42 0 37 0 C37 0.66 37 1.32 37 2 C25.12 2 13.24 2 1 2 C1.33 58.76 1.66 115.52 2 174 C-1.36490172 169.51346437 -1.36650595 168.45291477 -1.32279968 163.06512451 C-1.3212794 162.36750291 -1.31975913 161.66988131 -1.31819278 160.95111966 C-1.30942402 158.61389953 -1.2790507 156.27746286 -1.2487793 153.94042969 C-1.23807093 152.26499193 -1.22869405 150.58954521 -1.22055054 148.91409302 C-1.19465783 144.36470975 -1.15010769 139.81567668 -1.10225272 135.26647854 C-1.05540285 130.51262814 -1.02564849 125.75867181 -0.99409485 121.00469971 C-0.93173584 112.00196954 -0.85396182 102.9994409 -0.77067453 93.99688268 C-0.67660535 83.74797752 -0.59968257 73.49896624 -0.52421319 63.24990988 C-0.36857912 42.16641857 -0.18910648 21.08321948 0 0 Z " fill="#DBDBDB" transform="translate(509,318)"/>
<path d="M0 0 C0.99 0.33 1.98 0.66 3 1 C3.9368645 3.33938607 4.66734104 5.54819862 5.33984375 7.96484375 C5.54807266 8.67218155 5.75630157 9.37951935 5.97084045 10.10829163 C6.63813144 12.38146474 7.28866435 14.65899707 7.9375 16.9375 C8.79409479 19.90692185 9.65777367 22.87419632 10.52734375 25.83984375 C10.8429274 26.91742195 10.8429274 26.91742195 11.16488647 28.01676941 C12.79237356 33.49083192 14.76210245 38.74546267 17 44 C18.02380834 46.59523509 19.01557943 49.20209629 20 51.8125 C20.2570874 52.4940918 20.5141748 53.17568359 20.77905273 53.87792969 C22.36129264 58.12961098 23.772224 62.39858337 25.0625 66.75 C26.63180075 72.02441331 28.5937822 77.01236221 30.76171875 82.06640625 C36 94.47634069 36 94.47634069 36 99 C12.9 99 -10.2 99 -34 99 C-33.67 98.01 -33.34 97.02 -33 96 C-33 96.66 -33 97.32 -33 98 C-10.89 98 11.22 98 34 98 C31.628125 91.503125 29.25625 85.00625 26.8125 78.3125 C21.68085648 64.21327382 16.5691165 50.10721063 11.5743103 35.95883179 C11.0327843 34.42563415 10.48987814 32.89292316 9.94546509 31.36074829 C6.94013328 22.89471603 4.16263397 14.43399955 1.77050781 5.77099609 C1.23145459 3.83238581 0.63630089 1.90890266 0 0 Z " fill="#D3D3D3" transform="translate(778,365)"/>
<path d="M0 0 C0.33 0 0.66 0 1 0 C0.44628651 5.39424107 -0.50853498 10.19139925 -2.1875 15.375 C-2.405271 16.05344971 -2.62304199 16.73189941 -2.84741211 17.4309082 C-4.79703485 23.4724677 -6.82249629 29.48965958 -8.84082031 35.50854492 C-11.0048251 41.97347449 -13.03028823 48.47318506 -15 55 C-16.12321775 58.7088752 -17.24886716 62.41700901 -18.375 66.125 C-18.67422363 67.11218018 -18.97344727 68.09936035 -19.28173828 69.11645508 C-20.73078216 73.88398833 -22.19639326 78.64469877 -23.71484375 83.390625 C-23.98441895 84.23351074 -24.25399414 85.07639648 -24.53173828 85.94482422 C-25.0329636 87.50492329 -25.53755689 89.0639466 -26.04638672 90.62158203 C-27.4956797 95.12901617 -28.57129456 99.56527371 -29.36401367 104.23681641 C-29.57388916 104.81866699 -29.78376465 105.40051758 -30 106 C-31.485 106.495 -31.485 106.495 -33 107 C-31.57746772 101.15921924 -29.86501402 95.39653165 -28.1875 89.625 C-27.98479492 88.92756683 -27.78208984 88.23013367 -27.57324219 87.51156616 C-21.73243895 67.52437515 -15.21486722 47.74428122 -8.78198242 27.94189453 C-8.5644698 27.27199021 -8.34695719 26.6020859 -8.12285328 25.91188145 C-7.0906138 22.73299093 -6.0568906 19.55461012 -5.02033997 16.37712097 C-3.25189696 10.94113111 -1.51230058 5.513178 0 0 Z " fill="#DADADA" transform="translate(1238,101)"/>
<path d="M0 0 C3.52074631 3.17330424 6.81173177 6.49431568 10 10 C9.67 10.66 9.34 11.32 9 12 C8.3709375 11.33613281 7.741875 10.67226562 7.09375 9.98828125 C-2.17665408 0.42468668 -10.41210294 -3.96939257 -23 -8 C-23.63808594 -8.20496094 -24.27617188 -8.40992188 -24.93359375 -8.62109375 C-40.65931088 -11.50463734 -56.71212103 -7.57651396 -70 1 C-71.345024 1.9842196 -72.68245829 2.97928378 -74 4 C-74 3.01 -74 2.02 -74 1 C-53.44457165 -16.13615013 -21.11520682 -15.45934785 0 0 Z " fill="#D4D4D4" transform="translate(1508,138)"/>
<path d="M0 0 C0.33 0 0.66 0 1 0 C0.52310175 6.09748481 -0.82030737 10.64832031 -3.625 16.0625 C-3.98400391 16.7635083 -4.34300781 17.4645166 -4.71289062 18.18676758 C-7.43720051 23.32007371 -10.28569671 27.49528768 -15 31 C-15.6496875 31.48855469 -16.299375 31.97710937 -16.96875 32.48046875 C-21.3049318 35.45742433 -24.75914709 36.67244669 -30 37 C-27.41769993 35.27846662 -24.81207871 33.73522466 -22.125 32.1875 C-18.17548078 29.81206453 -15.02307585 27.52692183 -12 24 C-11.52046875 23.46117187 -11.0409375 22.92234375 -10.546875 22.3671875 C-5.09786401 15.78984595 -2.66840255 8.00520764 0 0 Z " fill="#DCDCDC" transform="translate(1006,207)"/>
<path d="M0 0 C0.33 0 0.66 0 1 0 C1.79568202 11.35267742 2.12818318 22.62018175 2 34 C-0.35745819 31.53207805 -0.98084084 30.24705723 -1.2487793 26.79199219 C-1.19117432 25.55610352 -1.13356934 24.32021484 -1.07421875 23.046875 C-1.04777786 22.38665344 -1.02133698 21.72643188 -0.99409485 21.04620361 C-0.90662607 18.94651787 -0.79738421 16.84862018 -0.6875 14.75 C-0.62420997 13.32297985 -0.56234496 11.89589574 -0.50195312 10.46875 C-0.35113743 6.97827392 -0.18078559 3.48906682 0 0 Z " fill="#D7D7D7" transform="translate(509,458)"/>
<path d="M0 0 C0.33 0 0.66 0 1 0 C1.76214036 10.35694312 2.13430792 20.6135207 2 31 C0.50463867 29.90112305 0.50463867 29.90112305 -1 28 C-1.2487793 25.08911133 -1.2487793 25.08911133 -1.07421875 21.58203125 C-1.01943359 20.32841797 -0.96464844 19.07480469 -0.90820312 17.78320312 C-0.83537109 16.47287109 -0.76253906 15.16253906 -0.6875 13.8125 C-0.62422635 12.47728029 -0.56236076 11.14199306 -0.50195312 9.80664062 C-0.34849635 6.53683087 -0.18061151 3.2684041 0 0 Z " fill="#C1C1C1" transform="translate(181,180)"/>
<path d="M0 0 C0.99 0.33 1.98 0.66 3 1 C2.28714844 1.49628906 1.57429687 1.99257813 0.83984375 2.50390625 C-4.95610589 6.6148961 -10.17013568 10.78994228 -15 16 C-15.66 16.66 -16.32 17.32 -17 18 C-16.36515861 12.4980413 -12.36666753 9.12490324 -8.328125 5.80078125 C-2.73877393 1.56440802 -2.73877393 1.56440802 0 0 Z " fill="#D3D3D3" transform="translate(515,23)"/>
<path d="M0 0 C0.66 0.33 1.32 0.66 2 1 C0.71632558 2.83893824 -0.57716761 4.67102625 -1.875 6.5 C-2.95394531 8.03140625 -2.95394531 8.03140625 -4.0546875 9.59375 C-4.69664063 10.3878125 -5.33859375 11.181875 -6 12 C-6.66 12 -7.32 12 -8 12 C-6.59023295 8.96147295 -4.91129772 6.4060405 -2.875 3.75 C-2.06675781 2.69039062 -2.06675781 2.69039062 -1.2421875 1.609375 C-0.83226562 1.07828125 -0.42234375 0.5471875 0 0 Z " fill="#D6D6D6" transform="translate(1544,237)"/>
<path d="M0 0 C2.61500768 2.36595933 4.38999603 4.86049226 6 8 C5.67 8.66 5.34 9.32 5 10 C2.9754262 8.06745228 1.57894208 6.36841312 0 4 C0 2.68 0 1.36 0 0 Z " fill="#8D8D8D" transform="translate(1624,469)"/>
<path d="M0 0 C0.66 0.33 1.32 0.66 2 1 C0.88200014 2.33920838 -0.24461897 3.67122556 -1.375 5 C-2.00148438 5.7425 -2.62796875 6.485 -3.2734375 7.25 C-4.12808594 8.11625 -4.12808594 8.11625 -5 9 C-5.66 9 -6.32 9 -7 9 C-5.44499019 5.18315774 -2.96404505 2.80804268 0 0 Z " fill="#E5E5E5" transform="translate(1432,141)"/>
<path d="M0 0 C2.79872437 2.52788007 4.45773019 4.20411134 5 8 C2 7 2 7 0 4 C0 2.68 0 1.36 0 0 Z " fill="#949494" transform="translate(493,461)"/>
<path d="M0 0 C2.79872437 2.52788007 4.45773019 4.20411134 5 8 C2 7 2 7 0 4 C0 2.68 0 1.36 0 0 Z " fill="#909090" transform="translate(1616,456)"/>
<path d="M0 0 C2.79872437 2.52788007 4.45773019 4.20411134 5 8 C2 7 2 7 0 4 C0 2.68 0 1.36 0 0 Z " fill="#909090" transform="translate(488,453)"/>
<path d="M0 0 C2.79872437 2.52788007 4.45773019 4.20411134 5 8 C2 7 2 7 0 4 C0 2.68 0 1.36 0 0 Z " fill="#969696" transform="translate(149,155)"/>
</svg>
